<?xml version="1.0" encoding="UTF-8"?>
<svg xmlns="http://www.w3.org/2000/svg" xmlns:xlink="http://www.w3.org/1999/xlink" viewBox="0 0 961.8 878.46">
  <defs>
    <style>
      .cls-1, .cls-2 {
        fill: none;
      }

      .cls-2 {
        clip-path: url(#clippath-2);
      }

      .cls-3 {
        fill: #fff;
      }

      .cls-3, .cls-4 {
        fill-rule: evenodd;
      }

      .cls-5 {
        fill: url(#linear-gradient-3);
      }

      .cls-6 {
        fill: url(#linear-gradient-2);
      }

      .cls-7 {
        fill: url(#linear-gradient);
      }

      .cls-8 {
        isolation: isolate;
      }

      .cls-9 {
        clip-path: url(#clippath-1);
      }

      .cls-10 {
        clip-path: url(#clippath-3);
      }

      .cls-11 {
        clip-path: url(#clippath-4);
      }

      .cls-12 {
        fill: #349083;
      }

      .cls-13 {
        opacity: .66;
      }

      .cls-14 {
        mix-blend-mode: overlay;
        opacity: .17;
      }

      .cls-15 {
        clip-path: url(#clippath);
      }
    </style>
    <clipPath id="clippath">
      <path d="M1171.97-124.8c-2.98-2.85-2.92-6.43-2.32-10.22,3.06-19.22,13.74-44.73,19.32-64.24,20.52-71.79,34.23-145.03,52.69-217.27,13.07-51.18,29.3-102.86,43.89-153.76,13.83-48.21,26.13-97.91,42.79-145.22,19.86-56.36,62.41-129.49,116.77-158.01,17.59-9.23,30.27-10,49.96-11.1,49.6-2.77,103.21-5.82,152.67-3.26,29.02,1.51,39.27,1.91,63.28,18.66,43.55,30.38,69.54,70.31,61.47,125.46-11.81,80.79-97.46,142.26-158.22,188.06-21.34,16.08-59.22,37.81-71.03,61.54-2.48,4.97-6.21,15.14,3.19,14.46,3.94-.29,35.85-28.54,41.43-33.31,40.02-34.28,65.64-64.57,121.71-70.31,48.97-5.01,106.37-3.02,155.82-1.58,30.08.88,44.85-4.51,66.72,19.24,83.34,90.45,55.31,234.4-44.67,299.24-73.33,47.56-183.66,70.72-270.24,73.62-40.1,1.34-81.46-1.8-121.24,4.09-24.01,3.56-41.48,12.96-52.06,35.51-4.01,8.56-7.37,26.33-12.69,32.3-1.14,1.27-2.41,2.51-4,3.24-10.83.46-21.77.61-32.61.39-22.58-.46-51.85-.4-73.87-3.25-7.65-.99-9.24-.6-8.35-9.15,1.56-14.94,12.27-39.29,19.86-52.44,45.21-78.36,123.49-57.8,199.74-59.75,85.7-2.2,182.43-13.89,254.08-64.87,45.27-32.21,95.2-109.89,67.56-165.95-23.99-48.65-89.75-40.48-131.59-23.42-36,14.68-57.5,32.44-85.19,58.62-13.28,12.55-19.47,25.94-39.75,25.31-23.94-.74-48.31-3.7-72.28-4.85-29-1.38-58.6-.74-87.59-3.19-10.69-.9-13.67-3.2-15.44-13.48-17.81-103.2,72.74-141.05,140.61-189.94,54.62-39.34,131.96-120.85,97.1-194.03-15.06-31.61-39.68-44.69-74.49-42.88-79.97,4.17-118.2,85.04-138.32,151.72-51.18,182.69-95.15,367.57-147.48,549.92-2.23,7.78-7.17,29.29-10.85,34.94-3.58,5.5-16.86,2.02-23.03,1.81-26.39-.9-53.11-1.21-79.6-.8-4.83.07-9.21,2.5-13.75-1.85Z"/>
    </clipPath>
    <clipPath id="clippath-1">
      <path class="cls-15" d="M1171.97-124.8c-2.98-2.85-2.92-6.43-2.32-10.22,3.06-19.22,13.74-44.73,19.32-64.24,20.52-71.79,34.23-145.03,52.69-217.27,13.07-51.18,29.3-102.86,43.89-153.76,13.83-48.21,26.13-97.91,42.79-145.22,19.86-56.36,62.41-129.49,116.77-158.01,17.59-9.23,30.27-10,49.96-11.1,49.6-2.77,103.21-5.82,152.67-3.26,29.02,1.51,39.27,1.91,63.28,18.66,43.55,30.38,69.54,70.31,61.47,125.46-11.81,80.79-97.46,142.26-158.22,188.06-21.34,16.08-59.22,37.81-71.03,61.54-2.48,4.97-6.21,15.14,3.19,14.46,3.94-.29,35.85-28.54,41.43-33.31,40.02-34.28,65.64-64.57,121.71-70.31,48.97-5.01,106.37-3.02,155.82-1.58,30.08.88,44.85-4.51,66.72,19.24,83.34,90.45,55.31,234.4-44.67,299.24-73.33,47.56-183.66,70.72-270.24,73.62-40.1,1.34-81.46-1.8-121.24,4.09-24.01,3.56-41.48,12.96-52.06,35.51-4.01,8.56-7.37,26.33-12.69,32.3-1.14,1.27-2.41,2.51-4,3.24-10.83.46-21.77.61-32.61.39-22.58-.46-51.85-.4-73.87-3.25-7.65-.99-9.24-.6-8.35-9.15,1.56-14.94,12.27-39.29,19.86-52.44,45.21-78.36,123.49-57.8,199.74-59.75,85.7-2.2,182.43-13.89,254.08-64.87,45.27-32.21,95.2-109.89,67.56-165.95-23.99-48.65-89.75-40.48-131.59-23.42-36,14.68-57.5,32.44-85.19,58.62-13.28,12.55-19.47,25.94-39.75,25.31-23.94-.74-48.31-3.7-72.28-4.85-29-1.38-58.6-.74-87.59-3.19-10.69-.9-13.67-3.2-15.44-13.48-17.81-103.2,72.74-141.05,140.61-189.94,54.62-39.34,131.96-120.85,97.1-194.03-15.06-31.61-39.68-44.69-74.49-42.88-79.97,4.17-118.2,85.04-138.32,151.72-51.18,182.69-95.15,367.57-147.48,549.92-2.23,7.78-7.17,29.29-10.85,34.94-3.58,5.5-16.86,2.02-23.03,1.81-26.39-.9-53.11-1.21-79.6-.8-4.83.07-9.21,2.5-13.75-1.85Z"/>
    </clipPath>
    <clipPath id="clippath-2">
      <path class="cls-1" d="M85.05-124.8c-2.98-2.85-2.92-6.43-2.32-10.22,3.06-19.22,13.74-44.73,19.32-64.24,20.52-71.79,34.23-145.03,52.69-217.27,13.07-51.18,29.3-102.86,43.89-153.76,13.83-48.21,26.13-97.91,42.79-145.22,19.86-56.36,62.41-129.49,116.77-158.01,17.59-9.23,30.27-10,49.96-11.1,49.6-2.77,103.21-5.82,152.67-3.26,29.02,1.51,39.27,1.91,63.28,18.66,43.55,30.38,69.54,70.31,61.47,125.46-11.81,80.79-97.46,142.26-158.22,188.06-21.34,16.08-59.22,37.81-71.03,61.54-2.48,4.97-6.21,15.14,3.19,14.46,3.94-.29,35.85-28.54,41.43-33.31,40.02-34.28,65.64-64.57,121.71-70.31,48.97-5.01,106.37-3.02,155.82-1.58,30.08.88,44.85-4.51,66.72,19.24,83.34,90.45,55.31,234.4-44.67,299.24-73.33,47.56-183.66,70.72-270.24,73.62-40.1,1.34-81.46-1.8-121.24,4.09-24.01,3.56-41.48,12.96-52.06,35.51-4.01,8.56-7.37,26.33-12.69,32.3-1.14,1.27-2.41,2.51-4,3.24-10.83.46-21.77.61-32.61.39-22.58-.46-51.85-.4-73.87-3.25-7.65-.99-9.24-.6-8.35-9.15,1.56-14.94,12.27-39.29,19.86-52.44,45.21-78.36,123.49-57.8,199.74-59.75,85.7-2.2,182.43-13.89,254.08-64.87,45.27-32.21,95.2-109.89,67.56-165.95-23.99-48.65-89.75-40.48-131.59-23.42-36,14.68-57.5,32.44-85.19,58.62-13.28,12.55-19.47,25.94-39.75,25.31-23.94-.74-48.31-3.7-72.28-4.85-29-1.38-58.6-.74-87.59-3.19-10.69-.9-13.67-3.2-15.44-13.48-17.81-103.2,72.74-141.05,140.61-189.94,54.62-39.34,131.96-120.85,97.1-194.03-15.06-31.61-39.68-44.69-74.49-42.88-79.97,4.17-118.2,85.04-138.32,151.72-51.18,182.69-95.15,367.57-147.48,549.92-2.23,7.78-7.17,29.29-10.85,34.94-3.58,5.5-16.86,2.02-23.03,1.81-26.39-.9-53.11-1.21-79.6-.8-4.83.07-9.21,2.5-13.75-1.85Z"/>
    </clipPath>
    <clipPath id="clippath-3">
      <path class="cls-2" d="M85.05-124.8c-2.98-2.85-2.92-6.43-2.32-10.22,3.06-19.22,13.74-44.73,19.32-64.24,20.52-71.79,34.23-145.03,52.69-217.27,13.07-51.18,29.3-102.86,43.89-153.76,13.83-48.21,26.13-97.91,42.79-145.22,19.86-56.36,62.41-129.49,116.77-158.01,17.59-9.23,30.27-10,49.96-11.1,49.6-2.77,103.21-5.82,152.67-3.26,29.02,1.51,39.27,1.91,63.28,18.66,43.55,30.38,69.54,70.31,61.47,125.46-11.81,80.79-97.46,142.26-158.22,188.06-21.34,16.08-59.22,37.81-71.03,61.54-2.48,4.97-6.21,15.14,3.19,14.46,3.94-.29,35.85-28.54,41.43-33.31,40.02-34.28,65.64-64.57,121.71-70.31,48.97-5.01,106.37-3.02,155.82-1.58,30.08.88,44.85-4.51,66.72,19.24,83.34,90.45,55.31,234.4-44.67,299.24-73.33,47.56-183.66,70.72-270.24,73.62-40.1,1.34-81.46-1.8-121.24,4.09-24.01,3.56-41.48,12.96-52.06,35.51-4.01,8.56-7.37,26.33-12.69,32.3-1.14,1.27-2.41,2.51-4,3.24-10.83.46-21.77.61-32.61.39-22.58-.46-51.85-.4-73.87-3.25-7.65-.99-9.24-.6-8.35-9.15,1.56-14.94,12.27-39.29,19.86-52.44,45.21-78.36,123.49-57.8,199.74-59.75,85.7-2.2,182.43-13.89,254.08-64.87,45.27-32.21,95.2-109.89,67.56-165.95-23.99-48.65-89.75-40.48-131.59-23.42-36,14.68-57.5,32.44-85.19,58.62-13.28,12.55-19.47,25.94-39.75,25.31-23.94-.74-48.31-3.7-72.28-4.85-29-1.38-58.6-.74-87.59-3.19-10.69-.9-13.67-3.2-15.44-13.48-17.81-103.2,72.74-141.05,140.61-189.94,54.62-39.34,131.96-120.85,97.1-194.03-15.06-31.61-39.68-44.69-74.49-42.88-79.97,4.17-118.2,85.04-138.32,151.72-51.18,182.69-95.15,367.57-147.48,549.92-2.23,7.78-7.17,29.29-10.85,34.94-3.58,5.5-16.86,2.02-23.03,1.81-26.39-.9-53.11-1.21-79.6-.8-4.83.07-9.21,2.5-13.75-1.85Z"/>
    </clipPath>
    <clipPath id="clippath-4">
      <path class="cls-1" d="M23.22,819.32c-3.07-2.93-3.01-6.62-2.39-10.52,3.15-19.8,14.15-46.07,19.9-66.16,21.13-73.95,35.26-149.38,54.27-223.79,13.46-52.72,30.18-105.95,45.21-158.37,14.24-49.66,26.91-100.85,44.08-149.57,20.45-58.05,64.28-133.37,120.27-162.75,18.12-9.51,31.18-10.3,51.46-11.44,51.09-2.85,106.31-6,157.25-3.35,29.89,1.55,40.45,1.96,65.18,19.22,44.86,31.29,71.63,72.42,63.32,129.23-12.17,83.21-100.38,146.53-162.97,193.7-21.98,16.57-61,38.95-73.16,63.38-2.55,5.12-6.4,15.6,3.29,14.89,4.06-.29,36.93-29.39,42.67-34.31,41.22-35.31,67.61-66.51,125.36-72.42,50.44-5.16,109.56-3.11,160.49-1.63,30.98.9,46.19-4.64,68.73,19.82,85.84,93.16,56.97,241.43-46.01,308.22-75.53,48.99-189.17,72.85-278.35,75.83-41.3,1.38-83.91-1.86-124.88,4.21-24.73,3.66-42.73,13.35-53.62,36.58-4.13,8.82-7.59,27.12-13.08,33.27-1.17,1.31-2.49,2.58-4.12,3.33-11.16.47-22.42.63-33.59.4-23.26-.47-53.41-.41-76.09-3.35-7.88-1.02-9.52-.62-8.61-9.43,1.6-15.38,12.64-40.47,20.45-54.02,46.57-80.71,127.19-59.53,205.74-61.55,88.27-2.26,187.91-14.31,261.7-66.82,46.63-33.18,98.06-113.19,69.59-170.93-24.7-50.11-92.44-41.7-135.53-24.12-37.08,15.12-59.23,33.41-87.75,60.38-13.68,12.93-20.05,26.72-40.94,26.07-24.66-.76-49.76-3.81-74.45-4.99-29.87-1.42-60.36-.76-90.22-3.29-11.01-.93-14.08-3.3-15.91-13.88-18.34-106.3,74.92-145.28,144.83-195.64,56.26-40.52,135.92-124.48,100.01-199.85-15.51-32.56-40.88-46.03-76.72-44.17-82.37,4.29-121.75,87.6-142.47,156.27-52.72,188.17-98,378.6-151.9,566.42-2.3,8.02-7.39,30.17-11.18,35.99-3.69,5.67-17.36,2.08-23.72,1.86-27.18-.93-54.71-1.25-81.99-.83-4.97.08-9.48,2.58-14.17-1.9Z"/>
    </clipPath>
    <linearGradient id="linear-gradient" x1="540.6" y1="29.2" x2="561.64" y2="174.42" gradientUnits="userSpaceOnUse">
      <stop offset=".23" stop-color="#382522"/>
      <stop offset=".43" stop-color="#1a110f" stop-opacity=".47"/>
      <stop offset=".61" stop-color="#060404" stop-opacity=".12"/>
      <stop offset=".74" stop-color="#000" stop-opacity="0"/>
    </linearGradient>
    <linearGradient id="linear-gradient-2" x1="440.31" y1="499.89" x2="559.86" y2="371" gradientUnits="userSpaceOnUse">
      <stop offset=".06" stop-color="#382522"/>
      <stop offset=".13" stop-color="#2d1e1b" stop-opacity=".82"/>
      <stop offset=".35" stop-color="#0c0807" stop-opacity=".22"/>
      <stop offset=".48" stop-color="#000" stop-opacity="0"/>
    </linearGradient>
    <linearGradient id="linear-gradient-3" x1="699.39" y1="308.63" x2="879.78" y2="501.9" gradientUnits="userSpaceOnUse">
      <stop offset=".19" stop-color="#382522"/>
      <stop offset=".33" stop-color="#1f1412" stop-opacity=".55"/>
      <stop offset=".49" stop-color="#080505" stop-opacity=".15"/>
      <stop offset=".59" stop-color="#000" stop-opacity="0"/>
    </linearGradient>
  </defs>
  <g class="cls-8">
    <g id="Layer_1" data-name="Layer 1">
      <g class="cls-14">
        <path d="M1171.97-124.8c-2.98-2.85-2.92-6.43-2.32-10.22,3.06-19.22,13.74-44.73,19.32-64.24,20.52-71.79,34.23-145.03,52.69-217.27,13.07-51.18,29.3-102.86,43.89-153.76,13.83-48.21,26.13-97.91,42.79-145.22,19.86-56.36,62.41-129.49,116.77-158.01,17.59-9.23,30.27-10,49.96-11.1,49.6-2.77,103.21-5.82,152.67-3.26,29.02,1.51,39.27,1.91,63.28,18.66,43.55,30.38,69.54,70.31,61.47,125.46-11.81,80.79-97.46,142.26-158.22,188.06-21.34,16.08-59.22,37.81-71.03,61.54-2.48,4.97-6.21,15.14,3.19,14.46,3.94-.29,35.85-28.54,41.43-33.31,40.02-34.28,65.64-64.57,121.71-70.31,48.97-5.01,106.37-3.02,155.82-1.58,30.08.88,44.85-4.51,66.72,19.24,83.34,90.45,55.31,234.4-44.67,299.24-73.33,47.56-183.66,70.72-270.24,73.62-40.1,1.34-81.46-1.8-121.24,4.09-24.01,3.56-41.48,12.96-52.06,35.51-4.01,8.56-7.37,26.33-12.69,32.3-1.14,1.27-2.41,2.51-4,3.24-10.83.46-21.77.61-32.61.39-22.58-.46-51.85-.4-73.87-3.25-7.65-.99-9.24-.6-8.35-9.15,1.56-14.94,12.27-39.29,19.86-52.44,45.21-78.36,123.49-57.8,199.74-59.75,85.7-2.2,182.43-13.89,254.08-64.87,45.27-32.21,95.2-109.89,67.56-165.95-23.99-48.65-89.75-40.48-131.59-23.42-36,14.68-57.5,32.44-85.19,58.62-13.28,12.55-19.47,25.94-39.75,25.31-23.94-.74-48.31-3.7-72.28-4.85-29-1.38-58.6-.74-87.59-3.19-10.69-.9-13.67-3.2-15.44-13.48-17.81-103.2,72.74-141.05,140.61-189.94,54.62-39.34,131.96-120.85,97.1-194.03-15.06-31.61-39.68-44.69-74.49-42.88-79.97,4.17-118.2,85.04-138.32,151.72-51.18,182.69-95.15,367.57-147.48,549.92-2.23,7.78-7.17,29.29-10.85,34.94-3.58,5.5-16.86,2.02-23.03,1.81-26.39-.9-53.11-1.21-79.6-.8-4.83.07-9.21,2.5-13.75-1.85Z"/>
        <path d="M1171.97-124.8c-2.98-2.85-2.92-6.43-2.32-10.22,3.06-19.22,13.74-44.73,19.32-64.24,20.52-71.79,34.23-145.03,52.69-217.27,13.07-51.18,29.3-102.86,43.89-153.76,13.83-48.21,26.13-97.91,42.79-145.22,19.86-56.36,62.41-129.49,116.77-158.01,17.59-9.23,30.27-10,49.96-11.1,49.6-2.77,103.21-5.82,152.67-3.26,29.02,1.51,39.27,1.91,63.28,18.66,43.55,30.38,69.54,70.31,61.47,125.46-11.81,80.79-97.46,142.26-158.22,188.06-21.34,16.08-59.22,37.81-71.03,61.54-2.48,4.97-6.21,15.14,3.19,14.46,3.94-.29,35.85-28.54,41.43-33.31,40.02-34.28,65.64-64.57,121.71-70.31,48.97-5.01,106.37-3.02,155.82-1.58,30.08.88,44.85-4.51,66.72,19.24,83.34,90.45,55.31,234.4-44.67,299.24-73.33,47.56-183.66,70.72-270.24,73.62-40.1,1.34-81.46-1.8-121.24,4.09-24.01,3.56-41.48,12.96-52.06,35.51-4.01,8.56-7.37,26.33-12.69,32.3-1.14,1.27-2.41,2.51-4,3.24-10.83.46-21.77.61-32.61.39-22.58-.46-51.85-.4-73.87-3.25-7.65-.99-9.24-.6-8.35-9.15,1.56-14.94,12.27-39.29,19.86-52.44,45.21-78.36,123.49-57.8,199.74-59.75,85.7-2.2,182.43-13.89,254.08-64.87,45.27-32.21,95.2-109.89,67.56-165.95-23.99-48.65-89.75-40.48-131.59-23.42-36,14.68-57.5,32.44-85.19,58.62-13.28,12.55-19.47,25.94-39.75,25.31-23.94-.74-48.31-3.7-72.28-4.85-29-1.38-58.6-.74-87.59-3.19-10.69-.9-13.67-3.2-15.44-13.48-17.81-103.2,72.74-141.05,140.61-189.94,54.62-39.34,131.96-120.85,97.1-194.03-15.06-31.61-39.68-44.69-74.49-42.88-79.97,4.17-118.2,85.04-138.32,151.72-51.18,182.69-95.15,367.57-147.48,549.92-2.23,7.78-7.17,29.29-10.85,34.94-3.58,5.5-16.86,2.02-23.03,1.81-26.39-.9-53.11-1.21-79.6-.8-4.83.07-9.21,2.5-13.75-1.85Z"/>
        <g class="cls-9">
          <path class="cls-4" d="M952.22,3.8c-.5.06-.31.8-.34,1.33,2.27,1.97,2.63-3.07.34-1.33Z"/>
        </g>
      </g>
      <g class="cls-14">
        <g class="cls-10">
          <path class="cls-3" d="M106.29-.87c-6.99.93-5.87,11.01.67,11.01,7.7,0,6.82-12.01-.67-11.01Z"/>
          <path class="cls-3" d="M119.97-.87c-2.97.53-4.68,2.18-4.68,5.34,0,7.62,11.69,7.26,11.35-.33-.14-3.16-2.39-5.79-6.67-5.01Z"/>
          <path class="cls-3" d="M134.32-.87c-2.42.45-3.89,1.8-4.34,3-3.98,10.71,14.39,9.97,10.68,0-.75-2.02-2.59-3.7-6.34-3Z"/>
          <path class="cls-3" d="M148.34-.87c-2.42.45-3.89,1.8-4.34,3-3.99,10.71,14.39,9.97,10.68,0-.75-2.02-2.59-3.7-6.34-3Z"/>
          <path class="cls-3" d="M162.36-.87c-2.42.45-3.89,1.8-4.34,3-3.99,10.71,14.39,9.97,10.68,0-.75-2.02-2.58-3.7-6.34-3Z"/>
          <path class="cls-3" d="M176.71-.87c-2.97.53-4.67,2.18-4.67,5.34,0,7.62,11.69,7.26,11.35-.33-.14-3.16-2.39-5.79-6.68-5.01Z"/>
          <path class="cls-3" d="M191.06-.87c-6.99.93-5.87,11.01.67,11.01,7.71,0,6.82-12.01-.67-11.01Z"/>
          <path class="cls-3" d="M49.54-.54c-3.64.51-4.68,2.33-4.68,5.01,0,9.64,16.03,3.7,9.35-3.68-1-1.1-2.77-1.6-4.67-1.33Z"/>
          <path class="cls-3" d="M62.89-.54c-2.76.66-4.01,2.37-4.01,5.01,0,7.67,11,6.65,10.69-.33-.14-3.16-2.28-5.73-6.68-4.68Z"/>
          <path class="cls-3" d="M79.92,9.81c6.26-1.2,3.94-9.81.33-10.68-1.03-.25-1.77-.12-3.34.33-7.06,2.01-2.81,11.45,3.01,10.35Z"/>
          <path class="cls-3" d="M90.93-.54c-7,1.9-3.36,11.83,3.34,10.35,6.35-1.41,4.18-12.38-3.34-10.35Z"/>
          <path class="cls-3" d="M204.41-.54c-7,1.9-3.36,11.83,3.34,10.35,6.35-1.41,4.17-12.38-3.34-10.35Z"/>
          <path class="cls-3" d="M221.44,9.81c6.26-1.2,3.95-9.81.33-10.68-1.02-.25-1.76-.12-3.34.33-7.06,2.01-2.8,11.45,3,10.35Z"/>
          <path class="cls-3" d="M233.12-.54c-2.76.66-4,2.37-4,5.01,0,7.67,11,6.65,10.68-.33-.15-3.16-2.27-5.73-6.68-4.68Z"/>
          <path class="cls-3" d="M247.81-.54c-3.64.51-4.67,2.33-4.67,5.01,0,9.64,16.03,3.7,9.35-3.68-1-1.1-2.78-1.6-4.68-1.33Z"/>
          <path class="cls-3" d="M20.84-.21c-6.12,1.28-4.3,9.98,1.33,9.68,5.82-.3,6.17-11.23-1.33-9.68Z"/>
          <path class="cls-3" d="M41.2,2.8c-.55-2.2-2.56-4.21-6.67-3.01-2.34.69-3.15,2.33-3.34,3.68-1.33,9.29,11.96,7.24,10.01-.67Z"/>
          <path class="cls-3" d="M267.5,2.8c-.54-2.2-2.56-4.21-6.68-3.01-2.34.69-3.15,2.33-3.34,3.68-1.32,9.29,11.96,7.24,10.02-.67Z"/>
          <path class="cls-3" d="M275.84-.21c-6.12,1.28-4.31,9.98,1.34,9.68,5.82-.3,6.16-11.23-1.34-9.68Z"/>
          <path class="cls-3" d="M6.15,9.14C14.15,11.21,14.54-2.57,6.15.12c-4.01,1.29-4.29,7.91,0,9.02Z"/>
          <path class="cls-3" d="M289.2,9.14c7.99,2.07,8.39-11.71,0-9.02-4.01,1.29-4.29,7.91,0,9.02Z"/>
          <path class="cls-3" d="M304.22.12c-2.59.56-3.68,1.8-3.68,4.35,0,6.63,9.68,5.86,9.35-.33-.14-2.77-1.89-4.83-5.67-4.01Z"/>
          <path class="cls-3" d="M317.9.46c-2.35.68-2.92,2.08-3.01,3.68-.39,7.4,9.71,5.55,8.68-.67-.35-2.11-1.95-4.09-5.67-3.01Z"/>
          <path class="cls-3" d="M331.92.79c-1.2.45-2.11,1.24-2.34,2.01-2.47,8.31,10.02,6.75,8.01,0-.61-2.07-3.14-2.94-5.67-2.01Z"/>
          <path class="cls-3" d="M346.94.79c-5.48,1.04-3.32,7.96,1,7.68,5.45-.36,3.92-8.61-1-7.68Z"/>
          <path class="cls-3" d="M360.63,1.13c-9.01,2.49,5.31,12.57,4.67,3.01-.16-2.51-2.13-3.71-4.67-3.01Z"/>
          <path class="cls-3" d="M374.98,1.46c-1.77.55-2.47,1.53-2.34,3.34.35,4.57,7,3.71,6.68-.66-.15-1.98-1.41-3.58-4.34-2.68Z"/>
          <path class="cls-3" d="M389.33,1.8c-7.3,1.94,4.31,10.16,3.68,2.34-.17-2.01-1.85-2.83-3.68-2.34Z"/>
          <path class="cls-3" d="M402.35,6.14c2.2,1.95,5.69-.41,4.01-3.34-2.2-1.95-5.69.41-4.01,3.34Z"/>
          <path class="cls-3" d="M416.36,4.8c.48.64,1.03,1.2,1.67,1.67,1.36-.19,2.14-.97,2.34-2.33-.8-2.12-3.83-1.95-4.01.66Z"/>
          <path class="cls-3" d="M432.05,3.8c-.5.06-.3.8-.33,1.33,2.28,1.97,2.63-3.07.33-1.33Z"/>
          <path class="cls-3" d="M78.24,13.48c-2.63.26-4.23,1.75-4.67,3-3.41,9.79,13.15,8.97,10.02,0-.56-1.6-2.21-3.32-5.34-3Z"/>
          <path class="cls-3" d="M91.6,13.48c-2.87.52-4.34,2-4.34,5.01,0,7.25,11.01,6.88,10.68-.33-.13-2.99-2.11-5.44-6.34-4.68Z"/>
          <path class="cls-3" d="M104.62,23.49c8.49,3.29,10.93-12.33,1-10.01-6.02,1.4-3.82,8.92-1,10.01Z"/>
          <path class="cls-3" d="M118.63,23.49c8.49,3.29,10.93-12.33,1-10.01-6.02,1.4-3.82,8.92-1,10.01Z"/>
          <path class="cls-3" d="M136.99,13.14c-1.02-.24-1.77-.11-3.34.34-7.05,2.01-2.8,11.45,3,10.35,6.27-1.2,3.95-9.81.34-10.69Z"/>
          <path class="cls-3" d="M151.02,13.14c-1.02-.24-1.78-.11-3.34.34-7.05,2.01-2.8,11.45,3.01,10.35,6.26-1.2,3.94-9.81.34-10.69Z"/>
          <path class="cls-3" d="M165.03,13.14c-1.02-.24-1.77-.11-3.34.34-7.05,2.01-2.8,11.45,3.01,10.35,6.26-1.2,3.94-9.81.34-10.69Z"/>
          <path class="cls-3" d="M175.38,23.49c8.5,3.29,10.93-12.33,1-10.01-6.02,1.4-3.82,8.92-1,10.01Z"/>
          <path class="cls-3" d="M189.4,23.49c8.49,3.29,10.92-12.33,1-10.01-6.02,1.4-3.83,8.92-1,10.01Z"/>
          <path class="cls-3" d="M205.08,13.48c-2.87.52-4.34,2-4.34,5.01,0,7.25,11.01,6.88,10.68-.33-.14-2.99-2.12-5.44-6.34-4.68Z"/>
          <path class="cls-3" d="M219.77,13.48c-2.62.26-4.24,1.75-4.67,3-3.42,9.79,13.15,8.97,10.02,0-.56-1.6-2.21-3.32-5.35-3Z"/>
          <path class="cls-3" d="M35.86,13.81c-3.15.31-4.54,1.98-4.67,4.35-.47,8.49,14.6,4.92,9.01-2.68-.66-.88-2.56-1.84-4.34-1.67Z"/>
          <path class="cls-3" d="M49.21,13.81c-2.68.54-4,2.01-4,4.68,0,6.95,10.36,6.33,10.01-.33-.15-2.88-2.06-5.14-6.01-4.35Z"/>
          <path class="cls-3" d="M69.24,16.82c-.54-2.2-2.55-4.21-6.67-3.01-2.34.69-3.15,2.33-3.34,3.68-1.32,9.29,11.96,7.24,10.02-.67Z"/>
          <path class="cls-3" d="M239.46,16.82c-.54-2.2-2.55-4.21-6.67-3.01-2.34.69-3.14,2.33-3.34,3.68-1.33,9.29,11.96,7.24,10.01-.67Z"/>
          <path class="cls-3" d="M247.48,13.81c-2.68.54-4.01,2.01-4.01,4.68,0,6.95,10.36,6.33,10.01-.33-.15-2.88-2.05-5.14-6-4.35Z"/>
          <path class="cls-3" d="M262.16,13.81c-3.14.31-4.54,1.98-4.67,4.35-.47,8.49,14.6,4.92,9.02-2.68-.65-.88-2.56-1.84-4.35-1.67Z"/>
          <path class="cls-3" d="M7.15,14.15c-2.6.41-4,1.77-4,4.34,0,6.31,9.66,5.9,9.35-.33-.13-2.49-1.91-4.55-5.34-4.01Z"/>
          <path class="cls-3" d="M20.5,14.15c-2.39.63-3.17,2.17-3.33,3.67-.53,4.97,3.3,5.72,5.67,5.34,5.46-.87,4.7-10.88-2.34-9.01Z"/>
          <path class="cls-3" d="M275.51,14.15c-2.4.63-3.18,2.17-3.34,3.67-.53,4.97,3.3,5.72,5.67,5.34,5.46-.87,4.7-10.88-2.33-9.01Z"/>
          <path class="cls-3" d="M290.2,14.15c-2.6.41-4.01,1.77-4.01,4.34,0,6.31,9.66,5.9,9.35-.33-.13-2.49-1.91-4.55-5.34-4.01Z"/>
          <path class="cls-3" d="M309.56,17.49c-.35-2.11-1.95-4.09-5.68-3.01-2.35.68-2.92,2.08-3,3.68-.39,7.4,9.72,5.55,8.68-.67Z"/>
          <path class="cls-3" d="M317.57,14.81c-1.2.45-2.11,1.24-2.34,2.01-2.46,8.31,10.02,6.75,8.01,0-.62-2.07-3.14-2.94-5.67-2.01Z"/>
          <path class="cls-3" d="M332.92,14.81c-5.48,1.04-3.32,7.96,1,7.68,5.44-.35,3.92-8.61-1-7.68Z"/>
          <path class="cls-3" d="M346.61,15.15c-9.01,2.49,5.31,12.57,4.67,3.01-.16-2.51-2.13-3.71-4.67-3.01Z"/>
          <path class="cls-3" d="M360.63,15.48c-8.24,2.56,5.68,11.36,4.33,2.34-.24-1.67-1.34-3.27-4.33-2.34Z"/>
          <path class="cls-3" d="M374.98,15.82c-6.89,2.47,4.64,10,4,2.34-.15-1.82-1.17-3.35-4-2.34Z"/>
          <path class="cls-3" d="M389.33,16.15c-6.5,1.97,4.01,8.66,3.34,2.01-.14-1.44-1.15-2.67-3.34-2.01Z"/>
          <path class="cls-3" d="M403.35,16.82c-3.93,3.49,4.23,5.44,3.01,1-.23-.85-1.47-1.97-3.01-1Z"/>
          <path class="cls-3" d="M417.03,19.16c.37.07.52.36.67.66,1.37.14,2.1-.34,2-1.66-.36-1.62-3.3-1.19-2.67,1Z"/>
          <path class="cls-3" d="M63.89,27.83c-3.14.31-4.54,1.98-4.68,4.34-.46,8.49,14.61,4.92,9.02-2.68-.66-.88-2.56-1.84-4.34-1.66Z"/>
          <path class="cls-3" d="M78.91,37.51c5.82-.3,6.17-11.23-1.33-9.68-6.13,1.27-4.3,9.97,1.33,9.68Z"/>
          <path class="cls-3" d="M91.27,27.83c-2.64.65-3.52,2.32-3.67,4-.81,8.59,11.07,6.87,10.01-.33-.37-2.51-2.19-4.7-6.34-3.67Z"/>
          <path class="cls-3" d="M105.29,27.83c-2.34.68-3.14,2.32-3.34,3.67-1.33,9.3,11.96,7.24,10.01-.67-.54-2.2-2.55-4.21-6.67-3Z"/>
          <path class="cls-3" d="M125.98,30.84c-.54-2.2-2.55-4.21-6.67-3-2.34.68-3.15,2.32-3.34,3.67-1.32,9.3,11.96,7.24,10.01-.67Z"/>
          <path class="cls-3" d="M133.65,27.83c-2.34.68-3.14,2.32-3.33,3.67-1.33,9.3,11.95,7.24,10.01-.67-.54-2.2-2.55-4.21-6.68-3Z"/>
          <path class="cls-3" d="M147.67,27.83c-2.34.68-3.14,2.32-3.34,3.67-1.32,9.3,11.96,7.24,10.01-.67-.54-2.2-2.55-4.21-6.68-3Z"/>
          <path class="cls-3" d="M161.69,27.83c-2.34.68-3.14,2.32-3.33,3.67-1.33,9.3,11.95,7.24,10.01-.67-.54-2.2-2.55-4.21-6.68-3Z"/>
          <path class="cls-3" d="M182.72,30.84c-.54-2.2-2.55-4.21-6.67-3-2.34.68-3.14,2.32-3.34,3.67-1.33,9.3,11.96,7.24,10.01-.67Z"/>
          <path class="cls-3" d="M190.06,27.83c-2.33.68-3.14,2.32-3.33,3.67-1.33,9.3,11.96,7.24,10.01-.67-.54-2.2-2.56-4.21-6.68-3Z"/>
          <path class="cls-3" d="M204.75,27.83c-2.64.65-3.52,2.32-3.67,4-.8,8.59,11.07,6.87,10.01-.33-.37-2.51-2.18-4.7-6.34-3.67Z"/>
          <path class="cls-3" d="M220.43,37.51c5.83-.3,6.17-11.23-1.33-9.68-6.12,1.27-4.31,9.97,1.33,9.68Z"/>
          <path class="cls-3" d="M234.12,27.83c-3.14.31-4.54,1.98-4.67,4.34-.47,8.49,14.59,4.92,9.02-2.68-.66-.88-2.57-1.84-4.35-1.66Z"/>
          <path class="cls-3" d="M35.19,28.17c-2.59.56-3.67,1.8-3.67,4.34,0,6.63,9.67,5.87,9.35-.33-.14-2.77-1.89-4.82-5.68-4.01Z"/>
          <path class="cls-3" d="M48.88,28.17c-3.65.93-4.84,5.53-2,8.01,7.29,6.4,12.31-10.65,2-8.01Z"/>
          <path class="cls-3" d="M247.14,28.17c-3.64.93-4.83,5.53-2,8.01,7.29,6.4,12.31-10.65,2-8.01Z"/>
          <path class="cls-3" d="M261.49,28.17c-2.59.56-3.67,1.8-3.67,4.34,0,6.63,9.67,5.87,9.35-.33-.15-2.77-1.89-4.82-5.67-4.01Z"/>
          <path class="cls-3" d="M6.82,28.5c-2.41.56-3.34,1.81-3.34,4.01,0,6.27,9.02,5.42,8.68-.33-.15-2.54-1.71-4.51-5.34-3.68Z"/>
          <path class="cls-3" d="M20.17,28.5c-2.33.8-2.53,2.14-2.67,3.01-.93,5.77,7.32,7.55,8.68,2.67,1.08-3.88-2.27-6.95-6.01-5.68Z"/>
          <path class="cls-3" d="M275.18,28.5c-2.34.8-2.53,2.14-2.68,3.01-.93,5.77,7.32,7.55,8.68,2.67,1.08-3.88-2.27-6.95-6-5.68Z"/>
          <path class="cls-3" d="M289.87,28.5c-2.41.56-3.34,1.81-3.34,4.01,0,6.27,9.02,5.42,8.68-.33-.15-2.54-1.71-4.51-5.34-3.68Z"/>
          <path class="cls-3" d="M303.88,28.83c-2.69.83-2.58,2.25-2.67,3.01-1.03,8.59,13.1,3.75,7.01-2.34-.68-.68-2.28-1.3-4.34-.67Z"/>
          <path class="cls-3" d="M318.91,36.51c4.85.31,5.81-8.38,0-7.68-5.27.64-3.98,7.42,0,7.68Z"/>
          <path class="cls-3" d="M332.59,29.17c-9.01,2.49,5.31,12.57,4.67,3.01-.16-2.51-2.14-3.71-4.67-3.01Z"/>
          <path class="cls-3" d="M346.61,29.5c-8.24,2.56,5.68,11.36,4.33,2.34-.24-1.67-1.34-3.27-4.33-2.34Z"/>
          <path class="cls-3" d="M360.63,29.83c-6.89,2.47,4.64,10,4,2.34-.15-1.82-1.17-3.35-4-2.34Z"/>
          <path class="cls-3" d="M375.31,30.17c-2.1.64-2.58,3.15-1.34,4.34,3.92,3.74,6.86-6.01,1.34-4.34Z"/>
          <path class="cls-3" d="M389.67,30.5c-2.19.5-2.1,1.35-2.01,2.34.28,3.06,6.73,2.1,4.35-1.67-.37-.58-1.21-.92-2.34-.67Z"/>
          <path class="cls-3" d="M403.35,33.84c.89,0,1.91.12,2.34-.34v-2c-1.65-1.39-3.73.68-2.34,2.34Z"/>
          <path class="cls-3" d="M120.64,42.18c-3.15.31-4.55,1.98-4.68,4.34-.46,8.49,14.6,4.92,9.01-2.67-.65-.89-2.56-1.85-4.33-1.67Z"/>
          <path class="cls-3" d="M134.66,42.18c-6.45,1-4.48,9.68.67,9.68,5.98,0,6.95-10.85-.67-9.68Z"/>
          <path class="cls-3" d="M148.67,42.18c-6.45,1-4.48,9.68.67,9.68,5.98,0,6.95-10.85-.67-9.68Z"/>
          <path class="cls-3" d="M162.69,42.18c-6.46,1-4.48,9.68.67,9.68,5.98,0,6.95-10.85-.67-9.68Z"/>
          <path class="cls-3" d="M177.38,42.18c-3.15.31-4.55,1.98-4.67,4.34-.47,8.49,14.59,4.92,9.02-2.67-.66-.89-2.57-1.85-4.35-1.67Z"/>
          <path class="cls-3" d="M63.56,42.51c-2.65.43-4.01,1.68-4.01,4.34,0,6.35,9.67,5.94,9.35-.33-.13-2.58-1.84-4.57-5.34-4.01Z"/>
          <path class="cls-3" d="M77.25,42.51c-2.45.67-3.25,2.28-3.34,4.01-.4,7.65,10.02,6,9.35-.33-.27-2.62-2.09-4.74-6-3.68Z"/>
          <path class="cls-3" d="M91.27,42.51c-3.64.93-4.84,5.53-2.01,8.02,7.29,6.39,12.31-10.65,2.01-8.02Z"/>
          <path class="cls-3" d="M105.29,42.51c-1.77.56-2.78,1.77-3.01,2.67-2.39,9.4,11.25,7.51,9.35,0-.65-2.57-3.43-3.58-6.34-2.67Z"/>
          <path class="cls-3" d="M190.06,42.51c-1.77.56-2.77,1.77-3,2.67-2.39,9.4,11.25,7.51,9.34,0-.65-2.57-3.44-3.58-6.35-2.67Z"/>
          <path class="cls-3" d="M204.41,51.53c8,2.07,8.4-11.71,0-9.01-4,1.3-4.27,7.91,0,9.01Z"/>
          <path class="cls-3" d="M218.76,42.51c-2.44.67-3.24,2.28-3.33,4.01-.41,7.65,10.01,6,9.35-.33-.28-2.62-2.08-4.74-6.01-3.68Z"/>
          <path class="cls-3" d="M233.79,42.51c-2.65.43-4,1.68-4,4.34,0,6.35,9.66,5.94,9.34-.33-.13-2.58-1.84-4.57-5.34-4.01Z"/>
          <path class="cls-3" d="M35.19,42.85c-3.15.7-3.34,2.29-3.34,4,0,7.35,12.58,4.24,8.01-2.67-.7-1.05-2.41-1.84-4.68-1.33Z"/>
          <path class="cls-3" d="M48.54,42.85c-2.34.8-2.53,2.13-2.67,3-.93,5.77,7.32,7.56,8.68,2.68,1.08-3.88-2.27-6.95-6.01-5.68Z"/>
          <path class="cls-3" d="M246.81,42.85c-2.34.8-2.53,2.13-2.67,3-.94,5.77,7.32,7.56,8.68,2.68,1.08-3.88-2.27-6.95-6.01-5.68Z"/>
          <path class="cls-3" d="M261.49,42.85c-3.15.7-3.34,2.29-3.34,4,0,7.35,12.58,4.24,8.01-2.67-.7-1.05-2.41-1.84-4.67-1.33Z"/>
          <path class="cls-3" d="M6.82,43.18c-2.23.57-3,1.65-3,3.67,0,5.81,8.01,4.98,8.01,0,0-2.68-1.53-4.56-5.01-3.67Z"/>
          <path class="cls-3" d="M20.17,43.18c-1.2.44-2.11,1.23-2.33,2-2.46,8.32,10.02,6.75,8.01,0-.62-2.06-3.15-2.94-5.68-2Z"/>
          <path class="cls-3" d="M275.18,43.18c-1.2.44-2.11,1.23-2.34,2-2.46,8.32,10.02,6.75,8.01,0-.62-2.06-3.14-2.94-5.67-2Z"/>
          <path class="cls-3" d="M289.87,43.18c-2.24.57-3.01,1.65-3.01,3.67,0,5.81,8.01,4.98,8.01,0,0-2.68-1.52-4.56-5-3.67Z"/>
          <path class="cls-3" d="M303.88,43.52c-1.88.64-2.89,1.49-2.33,4.34.84,4.32,8.41,3.47,7.34-2.01-.33-1.71-1.69-3.47-5.01-2.33Z"/>
          <path class="cls-3" d="M318.57,43.52c-2.11.45-3.01,1.62-3.01,3.34,0,5.31,7.66,4.42,7.34-.33-.13-2.02-1.48-3.62-4.33-3Z"/>
          <path class="cls-3" d="M332.59,43.85c-1.78.55-2.47,1.54-2.34,3.34.34,4.57,7,3.71,6.67-.67-.14-1.97-1.41-3.58-4.33-2.67Z"/>
          <path class="cls-3" d="M346.61,44.18c-6.89,2.47,4.64,9.99,4,2.34-.15-1.82-1.17-3.35-4-2.34Z"/>
          <path class="cls-3" d="M360.96,44.52c-2.1.64-2.58,3.15-1.34,4.34,3.92,3.74,6.86-6.01,1.34-4.34Z"/>
          <path class="cls-3" d="M375.65,44.85c-2.19.49-2.1,1.35-2.01,2.34.29,3.05,6.73,2.1,4.34-1.67-.36-.58-1.21-.92-2.33-.67Z"/>
          <path class="cls-3" d="M388.33,47.19c.67,1.55,2.68,1.55,3.34,0,0-2.45-3.34-2.45-3.34,0Z"/>
          <path class="cls-3" d="M106.62,56.54c-9,.96-1.64,12.99,3.67,7.68,3.09-3.1-.06-8.07-3.67-7.68Z"/>
          <path class="cls-3" d="M120.3,56.54c-2.65.43-4.01,1.68-4.01,4.34,0,6.35,9.67,5.94,9.35-.33-.13-2.58-1.83-4.57-5.34-4.01Z"/>
          <path class="cls-3" d="M134.32,56.54c-2.58.56-3.67,1.8-3.67,4.34,0,6.64,9.67,5.88,9.34-.33-.14-2.76-1.89-4.82-5.67-4.01Z"/>
          <path class="cls-3" d="M148.34,56.54c-2.58.56-3.67,1.8-3.67,4.34,0,6.64,9.67,5.88,9.34-.33-.14-2.76-1.89-4.82-5.67-4.01Z"/>
          <path class="cls-3" d="M162.36,56.54c-2.58.56-3.67,1.8-3.67,4.34,0,6.64,9.67,5.88,9.35-.33-.15-2.76-1.89-4.82-5.68-4.01Z"/>
          <path class="cls-3" d="M177.05,56.54c-2.65.43-4.01,1.68-4.01,4.34,0,6.35,9.67,5.94,9.35-.33-.13-2.58-1.84-4.57-5.34-4.01Z"/>
          <path class="cls-3" d="M191.4,56.54c-8.99.96-1.64,12.99,3.68,7.68,3.1-3.1-.06-8.07-3.68-7.68Z"/>
          <path class="cls-3" d="M63.23,56.87c-2.41.55-3.34,1.81-3.34,4,0,6.27,9.02,5.42,8.68-.33-.15-2.54-1.71-4.51-5.34-3.67Z"/>
          <path class="cls-3" d="M82.92,59.87c-.35-2.1-1.95-4.08-5.67-3-2.35.68-2.92,2.08-3.01,3.67-.39,7.41,9.72,5.55,8.68-.67Z"/>
          <path class="cls-3" d="M90.93,56.87c-2.34.8-2.53,2.14-2.67,3-.93,5.77,7.32,7.56,8.68,2.68,1.08-3.88-2.27-6.95-6.01-5.68Z"/>
          <path class="cls-3" d="M204.41,56.87c-2.34.8-2.53,2.14-2.66,3-.94,5.77,7.31,7.56,8.67,2.68,1.08-3.88-2.27-6.95-6.01-5.68Z"/>
          <path class="cls-3" d="M224.44,59.87c-.35-2.1-1.95-4.08-5.68-3-2.34.68-2.92,2.08-3,3.67-.4,7.41,9.71,5.55,8.67-.67Z"/>
          <path class="cls-3" d="M233.45,56.87c-2.4.55-3.33,1.81-3.33,4,0,6.27,9.02,5.42,8.68-.33-.15-2.54-1.71-4.51-5.35-3.67Z"/>
          <path class="cls-3" d="M21.51,57.2c-5.27.64-3.99,7.42,0,7.68,4.84.31,5.82-8.38,0-7.68Z"/>
          <path class="cls-3" d="M34.86,57.2c-2.01.62-3.24,1.66-2.67,4.68.88,4.72,9.11,3.86,8.01-2.01-.34-1.83-1.85-3.75-5.34-2.67Z"/>
          <path class="cls-3" d="M48.54,57.2c-1.2.44-2.11,1.23-2.34,2-2.46,8.32,10.02,6.76,8.01,0-.62-2.06-3.14-2.94-5.67-2Z"/>
          <path class="cls-3" d="M246.81,57.2c-1.2.44-2.11,1.23-2.34,2-2.47,8.32,10.02,6.76,8.01,0-.62-2.06-3.15-2.94-5.68-2Z"/>
          <path class="cls-3" d="M261.16,57.2c-2.02.62-3.24,1.66-2.68,4.68.89,4.72,9.11,3.86,8.01-2.01-.35-1.83-1.85-3.75-5.34-2.67Z"/>
          <path class="cls-3" d="M276.52,57.2c-5.28.64-3.99,7.42,0,7.68,4.84.31,5.81-8.38,0-7.68Z"/>
          <path class="cls-3" d="M6.82,57.54c-2.09.56-2.83,1.29-2.67,3.67.33,5.08,8.04,4.19,7.34-1-.26-1.92-1.47-3.54-4.67-2.67Z"/>
          <path class="cls-3" d="M289.87,57.54c-2.1.56-2.83,1.29-2.68,3.67.34,5.08,8.04,4.19,7.35-1-.26-1.92-1.46-3.54-4.67-2.67Z"/>
          <path class="cls-3" d="M303.88,57.87c-1.65.65-1.91,1.68-2,2.34-.88,6.13,8.28,4.79,6.68-.67-.54-1.84-2.62-2.47-4.68-1.67Z"/>
          <path class="cls-3" d="M318.91,57.87c-2.06.33-2.92,1.61-3.01,2.67-.53,6.56,9.18,2.7,6.01-1.67-.33-.46-1.45-1.25-3-1Z"/>
          <path class="cls-3" d="M332.92,58.2c-7.3,1.94,4.31,10.16,3.67,2.34-.16-2.03-1.85-2.82-3.67-2.34Z"/>
          <path class="cls-3" d="M346.94,58.54c-6.5,1.97,4.01,8.66,3.34,2.01-.15-1.44-1.15-2.66-3.34-2.01Z"/>
          <path class="cls-3" d="M361.29,58.87c-2.19.49-2.1,1.35-2,2.34.28,3.06,6.72,2.1,4.34-1.67-.36-.58-1.21-.92-2.34-.67Z"/>
          <path class="cls-3" d="M374.31,61.21c.67,1.55,2.67,1.55,3.34,0,0-2.45-3.34-2.45-3.34,0Z"/>
          <path class="cls-3" d="M389,61.54c.97-.15,1.52-.7,1.67-1.67-1.35-.23-1.91.32-1.67,1.67Z"/>
          <path class="cls-3" d="M106.29,71.23c-2.34.42-3.68,1.76-3.68,4,0,5.87,9.02,5.45,8.68-.34-.13-2.3-1.83-4.24-5-3.66Z"/>
          <path class="cls-3" d="M120.3,71.23c-2.34.42-3.68,1.76-3.68,4,0,5.87,9.02,5.45,8.68-.34-.13-2.3-1.83-4.24-5-3.66Z"/>
          <path class="cls-3" d="M134.32,71.23c-2.4.55-3.34,1.8-3.34,4,0,6.27,9.02,5.42,8.68-.34-.15-2.54-1.7-4.5-5.34-3.66Z"/>
          <path class="cls-3" d="M148.34,71.23c-2.4.55-3.34,1.8-3.34,4,0,6.27,9.02,5.42,8.68-.34-.15-2.54-1.7-4.5-5.34-3.66Z"/>
          <path class="cls-3" d="M162.36,71.23c-2.4.55-3.33,1.8-3.33,4,0,6.27,9.01,5.42,8.67-.34-.15-2.54-1.71-4.5-5.34-3.66Z"/>
          <path class="cls-3" d="M177.05,71.23c-2.34.42-3.67,1.76-3.67,4,0,5.87,9.01,5.45,8.68-.34-.14-2.3-1.84-4.24-5.01-3.66Z"/>
          <path class="cls-3" d="M191.06,71.23c-2.34.42-3.67,1.76-3.67,4,0,5.87,9.01,5.45,8.68-.34-.13-2.3-1.84-4.24-5.01-3.66Z"/>
          <path class="cls-3" d="M63.23,71.56c-5.23,1.36-2.4,7.67,1,7.67,4.75,0,5.68-9.41-1-7.67Z"/>
          <path class="cls-3" d="M77.25,71.56c-2.69.82-2.58,2.25-2.68,3-1.03,8.59,13.1,3.75,7.01-2.33-.68-.68-2.28-1.3-4.33-.67Z"/>
          <path class="cls-3" d="M90.93,71.56c-1.19.44-2.1,1.23-2.34,2-2.46,8.31,10.02,6.76,8.01,0-.62-2.07-3.14-2.94-5.67-2Z"/>
          <path class="cls-3" d="M204.41,71.56c-1.2.44-2.11,1.23-2.33,2-2.47,8.31,10.02,6.76,8.01,0-.61-2.07-3.14-2.94-5.68-2Z"/>
          <path class="cls-3" d="M218.76,71.56c-2.69.82-2.57,2.25-2.66,3-1.04,8.59,13.1,3.75,7.01-2.33-.69-.68-2.28-1.3-4.35-.67Z"/>
          <path class="cls-3" d="M233.45,71.56c-5.21,1.36-2.4,7.67,1,7.67,4.75,0,5.67-9.41-1-7.67Z"/>
          <path class="cls-3" d="M35.19,71.89c-2.09.56-2.83,1.29-2.67,3.67.34,5.08,8.04,4.19,7.35-1-.26-1.92-1.47-3.54-4.68-2.67Z"/>
          <path class="cls-3" d="M48.54,71.89c-7.11,2.99,3.27,11.15,5.34,5.01,1.2-3.57-2.03-6.4-5.34-5.01Z"/>
          <path class="cls-3" d="M246.81,71.89c-7.1,2.99,3.28,11.15,5.34,5.01,1.2-3.57-2.04-6.4-5.34-5.01Z"/>
          <path class="cls-3" d="M261.49,71.89c-2.09.56-2.83,1.29-2.67,3.67.34,5.08,8.04,4.19,7.34-1-.26-1.92-1.47-3.54-4.67-2.67Z"/>
          <path class="cls-3" d="M6.82,72.23c-1.78.55-2.47,1.53-2.34,3.34.34,4.57,7,3.71,6.68-.67-.15-1.98-1.41-3.57-4.34-2.67Z"/>
          <path class="cls-3" d="M20.5,72.23c-1.65.65-1.91,1.67-2,2.33-.88,6.13,8.28,4.79,6.68-.67-.54-1.83-2.63-2.47-4.68-1.66Z"/>
          <path class="cls-3" d="M275.51,72.23c-1.66.65-1.91,1.67-2,2.33-.88,6.13,8.28,4.79,6.67-.67-.54-1.83-2.63-2.47-4.67-1.66Z"/>
          <path class="cls-3" d="M289.87,72.23c-1.78.55-2.47,1.53-2.34,3.34.34,4.57,7,3.71,6.67-.67-.14-1.98-1.41-3.57-4.33-2.67Z"/>
          <path class="cls-3" d="M304.22,72.55c-6.89,2.47,4.64,10,4,2.34-.15-1.81-1.17-3.35-4-2.34Z"/>
          <path class="cls-3" d="M320.57,72.55c-.79.2-2.43-.42-2.67.34-1.28.39-1.52,1.82-1.34,3.67,2.54,4,8.01-1.47,4-4.01Z"/>
          <path class="cls-3" d="M331.59,76.9c2.2,1.95,5.69-.42,4.01-3.34-2.2-1.95-5.69.42-4.01,3.34Z"/>
          <path class="cls-3" d="M346.61,73.56c-3.93,3.49,4.22,5.44,3,1-.23-.85-1.47-1.97-3-1Z"/>
          <path class="cls-3" d="M360.63,76.57c.88-.01,1.9.12,2.34-.34v-2c-1.66-1.39-3.73.68-2.34,2.34Z"/>
          <path class="cls-3" d="M106.62,85.58c-5.28.64-3.99,7.42,0,7.68,4.85.31,5.81-8.38,0-7.68Z"/>
          <path class="cls-3" d="M120.3,85.58c-5.48,1.04-3.32,7.96,1,7.68,5.45-.36,3.92-8.61-1-7.68Z"/>
          <path class="cls-3" d="M134.32,85.58c-5.22,1.36-2.4,7.68,1,7.68,4.74,0,5.67-9.41-1-7.68Z"/>
          <path class="cls-3" d="M148.34,85.58c-5.22,1.36-2.4,7.68,1,7.68,4.75,0,5.67-9.41-1-7.68Z"/>
          <path class="cls-3" d="M162.36,85.58c-5.22,1.36-2.4,7.68,1,7.68,4.75,0,5.67-9.41-1-7.68Z"/>
          <path class="cls-3" d="M177.05,85.58c-5.48,1.04-3.32,7.96,1,7.68,5.45-.36,3.92-8.61-1-7.68Z"/>
          <path class="cls-3" d="M191.4,85.58c-5.27.64-3.98,7.42,0,7.68,4.85.31,5.82-8.38,0-7.68Z"/>
          <path class="cls-3" d="M63.56,85.91c-2.85.61-4.12,3.9-2,6.01,5.32,5.32,9.39-7.6,2-6.01Z"/>
          <path class="cls-3" d="M77.25,85.91c-1.88.64-2.9,1.49-2.34,4.34.85,4.32,8.42,3.47,7.34-2-.33-1.7-1.69-3.47-5-2.34Z"/>
          <path class="cls-3" d="M89.6,86.58c-.98,1.59-.82,4.42.33,5.68,4.24,2.82,8.44-2.48,5.34-6.01-1.59-.99-4.42-.81-5.67.34Z"/>
          <path class="cls-3" d="M203.08,86.58c-.99,1.59-.82,4.42.33,5.68,4.25,2.82,8.44-2.48,5.34-6.01-1.59-.99-4.43-.81-5.68.34Z"/>
          <path class="cls-3" d="M218.76,85.91c-1.87.64-2.88,1.49-2.33,4.34.84,4.32,8.41,3.47,7.35-2-.34-1.7-1.69-3.47-5.01-2.34Z"/>
          <path class="cls-3" d="M233.79,85.91c-2.84.61-4.11,3.9-2,6.01,5.33,5.32,9.4-7.6,2-6.01Z"/>
          <path class="cls-3" d="M35.19,86.24c-1.78.55-2.47,1.54-2.33,3.34.33,4.57,7,3.71,6.67-.67-.14-1.98-1.41-3.57-4.34-2.67Z"/>
          <path class="cls-3" d="M48.88,86.24c-1.66.65-1.91,1.68-2,2.34-.88,6.13,8.28,4.79,6.67-.67-.54-1.83-2.63-2.47-4.67-1.67Z"/>
          <path class="cls-3" d="M247.14,86.24c-1.65.65-1.91,1.68-2,2.34-.88,6.13,8.28,4.79,6.68-.67-.54-1.83-2.63-2.47-4.68-1.67Z"/>
          <path class="cls-3" d="M261.49,86.24c-1.78.55-2.47,1.54-2.34,3.34.34,4.57,7,3.71,6.68-.67-.15-1.98-1.41-3.57-4.34-2.67Z"/>
          <path class="cls-3" d="M7.48,86.58c-5.89,1.06-.69,7.54,2.34,5.01,2.03-1.7.37-5.5-2.34-5.01Z"/>
          <path class="cls-3" d="M19.17,91.25c.82,1.17,3.85,1.4,5.01.34.82-.85.87-3.11.33-4.35-2.48-2.65-7.49.04-5.34,4.01Z"/>
          <path class="cls-3" d="M274.18,91.25c.82,1.17,3.84,1.4,5,.34.82-.85.87-3.11.33-4.35-2.48-2.65-7.48.04-5.34,4.01Z"/>
          <path class="cls-3" d="M290.53,86.58c-5.9,1.06-.69,7.54,2.33,5.01,2.03-1.7.38-5.5-2.33-5.01Z"/>
          <path class="cls-3" d="M304.56,86.91c-2.1.64-2.58,3.15-1.34,4.34,3.92,3.74,6.86-6.01,1.34-4.34Z"/>
          <path class="cls-3" d="M318.57,87.24c-5.45,1.96,3.67,7.6,3,1.67-.19-1.71-1.5-2.21-3-1.67Z"/>
          <path class="cls-3" d="M331.59,89.58c.48.64,1.03,1.2,1.67,1.67,1.36-.2,2.14-.98,2.34-2.34-.8-2.11-3.83-1.94-4.01.67Z"/>
          <path class="cls-3" d="M346.27,89.92c.37.07.52.37.67.67,1.36.14,2.11-.35,2.01-1.67-.37-1.61-3.3-1.18-2.68,1Z"/>
          <path class="cls-3" d="M120.64,100.26c-6.05.83-2.48,8.7,2,6.68,3.21-1.45,1.85-7.2-2-6.68Z"/>
          <path class="cls-3" d="M134.99,100.26c-6.05.83-2.48,8.7,2,6.68,3.2-1.45,1.84-7.2-2-6.68Z"/>
          <path class="cls-3" d="M148.67,100.26c-2.1.45-3.01,1.62-3.01,3.34,0,5.32,7.66,4.43,7.35-.33-.13-2.02-1.48-3.62-4.34-3Z"/>
          <path class="cls-3" d="M163.03,100.26c-6.05.83-2.48,8.7,2.01,6.68,3.2-1.45,1.84-7.2-2.01-6.68Z"/>
          <path class="cls-3" d="M177.38,100.26c-6.05.83-2.48,8.7,2.01,6.68,3.2-1.45,1.84-7.2-2.01-6.68Z"/>
          <path class="cls-3" d="M77.58,100.6c-1.78.55-2.47,1.53-2.34,3.34.34,4.57,7,3.71,6.68-.67-.14-1.97-1.41-3.58-4.34-2.67Z"/>
          <path class="cls-3" d="M91.27,100.6c-1.66.65-1.91,1.68-2.01,2.33-.88,6.13,8.29,4.79,6.68-.67-.54-1.83-2.63-2.47-4.67-1.67Z"/>
          <path class="cls-3" d="M105.62,100.6c-1.66.65-1.91,1.68-2.01,2.33-.88,6.13,8.29,4.79,6.68-.67-.54-1.83-2.63-2.47-4.68-1.67Z"/>
          <path class="cls-3" d="M190.4,100.6c-1.66.65-1.91,1.68-2.01,2.33-.88,6.13,8.28,4.79,6.68-.67-.54-1.83-2.63-2.47-4.67-1.67Z"/>
          <path class="cls-3" d="M204.75,100.6c-1.66.65-1.91,1.68-2.01,2.33-.87,6.13,8.28,4.79,6.68-.67-.55-1.83-2.63-2.47-4.68-1.67Z"/>
          <path class="cls-3" d="M219.1,100.6c-1.78.55-2.47,1.53-2.33,3.34.33,4.57,6.99,3.71,6.67-.67-.15-1.97-1.41-3.58-4.34-2.67Z"/>
          <path class="cls-3" d="M49.21,100.93c-6.89,2.47,4.64,9.99,4.01,2.34-.15-1.81-1.17-3.35-4.01-2.34Z"/>
          <path class="cls-3" d="M61.56,105.6c.82,1.16,3.85,1.4,5,.33.82-.85.87-3.11.33-4.34-2.48-2.66-7.48.03-5.34,4.01Z"/>
          <path class="cls-3" d="M231.78,105.6c.83,1.16,3.85,1.4,5.01.33.82-.85.87-3.11.34-4.34-2.48-2.66-7.49.03-5.34,4.01Z"/>
          <path class="cls-3" d="M247.48,100.93c-6.89,2.47,4.64,9.99,4,2.34-.15-1.81-1.17-3.35-4-2.34Z"/>
          <path class="cls-3" d="M21.17,101.26c-2.09.64-2.58,3.15-1.33,4.35,3.92,3.74,6.86-6.02,1.33-4.35Z"/>
          <path class="cls-3" d="M37.52,100.93c-.8.2-2.42-.42-2.67.33-1.27.4-1.52,1.82-1.33,3.68,2.54,4,8.01-1.47,4-4.01Z"/>
          <path class="cls-3" d="M263.83,100.93c-.8.2-2.42-.42-2.66.33-1.28.4-1.52,1.82-1.34,3.68,2.54,4,8.01-1.47,4-4.01Z"/>
          <path class="cls-3" d="M276.18,101.26c-2.09.64-2.58,3.15-1.33,4.35,3.92,3.74,6.86-6.02,1.33-4.35Z"/>
          <path class="cls-3" d="M6.82,101.6c-4.86,2.4,4.05,7.42,3.34,1.67-.21-1.69-1.62-2.51-3.34-1.67Z"/>
          <path class="cls-3" d="M289.87,101.6c-4.86,2.4,4.04,7.42,3.33,1.67-.2-1.69-1.62-2.51-3.33-1.67Z"/>
          <path class="cls-3" d="M304.22,101.93c-3.93,3.49,4.21,5.44,3.01,1-.23-.84-1.47-1.98-3.01-1Z"/>
          <path class="cls-3" d="M317.57,103.93c.42,1.84,3.58,1.67,3.33-.67-.42-1.84-3.56-1.67-3.33.67Z"/>
          <path class="cls-3" d="M332.92,102.93c-.5.07-.3.81-.33,1.34,2.27,1.97,2.63-3.07.33-1.34Z"/>
          <path class="cls-3" d="M91.94,114.95c-7.3,1.94,4.31,10.15,3.67,2.34-.17-2.01-1.85-2.82-3.67-2.34Z"/>
          <path class="cls-3" d="M105.95,114.95c-6.89,2.47,4.64,9.99,4,2.34-.16-1.81-1.17-3.35-4-2.34Z"/>
          <path class="cls-3" d="M119.64,114.95c-7.07,4.67,6.96,8.74,4.34,1.33-.33-.93-1.92-2.34-4.34-1.33Z"/>
          <path class="cls-3" d="M132.65,119.62c.83,1.17,3.85,1.4,5.01.33.82-.85.87-3.11.33-4.34-2.48-2.66-7.49.03-5.34,4.01Z"/>
          <path class="cls-3" d="M146.67,119.62c.83,1.17,3.85,1.4,5.01.33.82-.85.87-3.11.33-4.34-2.48-2.66-7.49.03-5.34,4.01Z"/>
          <path class="cls-3" d="M160.69,119.62c.83,1.17,3.85,1.4,5.01.33.82-.85.87-3.11.34-4.34-2.49-2.66-7.5.03-5.34,4.01Z"/>
          <path class="cls-3" d="M176.38,114.95c-7.07,4.67,6.97,8.74,4.35,1.33-.34-.93-1.91-2.34-4.35-1.33Z"/>
          <path class="cls-3" d="M190.73,114.95c-6.89,2.47,4.64,9.99,4.01,2.34-.15-1.81-1.17-3.35-4.01-2.34Z"/>
          <path class="cls-3" d="M205.41,114.95c-7.29,1.94,4.31,10.15,3.67,2.34-.16-2.01-1.85-2.82-3.67-2.34Z"/>
          <path class="cls-3" d="M65.23,114.95c-.48-.13-1.17-.01-2,.34-1.41.59-2.43.9-1.67,3.34,1.74,5.57,8.51-2.38,3.67-3.67Z"/>
          <path class="cls-3" d="M79.92,114.95c-.8.21-2.42-.42-2.67.34-1.28.39-1.52,1.82-1.34,3.67,2.54,4,8.01-1.47,4.01-4.01Z"/>
          <path class="cls-3" d="M221.44,114.95c-.8.21-2.42-.42-2.68.34-1.26.39-1.51,1.82-1.33,3.67,2.54,4,8.01-1.47,4.01-4.01Z"/>
          <path class="cls-3" d="M235.46,114.95c-.48-.13-1.17-.01-2.01.34-1.4.59-2.42.9-1.67,3.34,1.74,5.57,8.52-2.38,3.67-3.67Z"/>
          <path class="cls-3" d="M35.52,115.62c-5.45,1.95,3.68,7.59,3,1.67-.19-1.71-1.51-2.2-3-1.67Z"/>
          <path class="cls-3" d="M48.88,115.62c-4.53,3.47,5.25,7.23,3.67.67-.48-.76-2.6-1.6-3.67-.67Z"/>
          <path class="cls-3" d="M247.14,115.62c-4.52,3.47,5.26,7.23,3.67.67-.48-.76-2.6-1.6-3.67-.67Z"/>
          <path class="cls-3" d="M261.83,115.62c-5.44,1.95,3.68,7.59,3,1.67-.19-1.71-1.51-2.2-3-1.67Z"/>
          <path class="cls-3" d="M21.17,115.95c-4.69,1.97,3.39,5.98,2.67,1.33-.33-2.14-2.02-1.61-2.67-1.33Z"/>
          <path class="cls-3" d="M276.18,115.95c-4.68,1.97,3.39,5.98,2.67,1.33-.32-2.14-2.01-1.61-2.67-1.33Z"/>
          <path class="cls-3" d="M6.48,118.95c1.93,1.15,3.82-.74,2.67-2.67-1.92-1.15-3.82.75-2.67,2.67Z"/>
          <path class="cls-3" d="M289.53,118.95c1.92,1.15,3.82-.74,2.67-2.67-1.93-1.15-3.82.75-2.67,2.67Z"/>
          <path class="cls-3" d="M303.88,117.95c3.68,3.47,2.02-4.83,0,0h0Z"/>
          <path class="cls-3" d="M120.64,129.3c-7.15,1.39,3.7,8.94,3,2-.13-1.29-.99-2.39-3-2Z"/>
          <path class="cls-3" d="M134.66,129.3c-6.5,1.97,4.01,8.65,3.34,2-.15-1.44-1.15-2.66-3.34-2Z"/>
          <path class="cls-3" d="M148.67,129.3c-2.1.63-2.58,3.15-1.33,4.34,3.92,3.74,6.87-6.02,1.33-4.34Z"/>
          <path class="cls-3" d="M162.69,129.3c-6.49,1.97,4.01,8.65,3.34,2-.15-1.44-1.15-2.66-3.34-2Z"/>
          <path class="cls-3" d="M177.38,129.3c-7.15,1.39,3.7,8.94,3.01,2-.13-1.29-1-2.39-3.01-2Z"/>
          <path class="cls-3" d="M77.91,129.63c-5.44,1.96,3.68,7.59,3,1.67-.19-1.71-1.51-2.2-3-1.67Z"/>
          <path class="cls-3" d="M91.6,129.63c-4.86,2.4,4.05,7.42,3.33,1.67-.2-1.68-1.62-2.51-3.33-1.67Z"/>
          <path class="cls-3" d="M104.95,133.3c2.2,1.95,5.69-.42,4.01-3.33-2.2-1.95-5.69.41-4.01,3.33Z"/>
          <path class="cls-3" d="M189.73,133.3c2.2,1.95,5.69-.42,4.01-3.33-2.2-1.95-5.69.41-4.01,3.33Z"/>
          <path class="cls-3" d="M204.08,133.3c2.2,1.95,5.69-.42,4.01-3.33-2.2-1.95-5.69.41-4.01,3.33Z"/>
          <path class="cls-3" d="M219.44,129.63c-5.45,1.96,3.68,7.59,3,1.67-.19-1.71-1.51-2.2-3-1.67Z"/>
          <path class="cls-3" d="M48.21,131.97c.47.64,1.03,1.2,1.66,1.67,1.36-.2,2.14-.97,2.34-2.34-.8-2.11-3.83-1.93-4,.67Z"/>
          <path class="cls-3" d="M63.23,129.97c-3.94,3.49,4.21,5.44,3,1-.23-.85-1.46-1.97-3-1Z"/>
          <path class="cls-3" d="M233.45,129.97c-3.93,3.49,4.22,5.44,3.01,1-.23-.85-1.47-1.97-3.01-1Z"/>
          <path class="cls-3" d="M246.48,131.97c.47.64,1.02,1.2,1.67,1.67,1.36-.2,2.14-.97,2.33-2.34-.8-2.11-3.83-1.93-4,.67Z"/>
          <path class="cls-3" d="M34.53,131.97c.66,1.56,2.66,1.56,3.33,0,0-2.45-3.34-2.45-3.33,0Z"/>
          <path class="cls-3" d="M260.83,131.97c.67,1.56,2.67,1.56,3.34,0,0-2.45-3.34-2.45-3.34,0Z"/>
          <path class="cls-3" d="M20.5,131.97c3.68,3.47,2.02-4.83,0,0h0Z"/>
          <path class="cls-3" d="M275.51,131.97c3.68,3.47,2.02-4.83,0,0h0Z"/>
          <path class="cls-3" d="M133.32,146.32c.48.64,1.03,1.2,1.67,1.67,1.36-.19,2.14-.98,2.34-2.34-.81-2.11-3.83-1.93-4.01.67Z"/>
          <path class="cls-3" d="M148.67,144.32c-4.69,1.97,3.39,5.99,2.67,1.33-.33-2.14-2.02-1.6-2.67-1.33Z"/>
          <path class="cls-3" d="M161.36,146.32c.48.64,1.03,1.2,1.67,1.67,1.36-.19,2.14-.98,2.34-2.34-.81-2.11-3.83-1.93-4.01.67Z"/>
          <path class="cls-3" d="M90.93,146.32c.67,1.56,2.67,1.56,3.34,0,0-2.45-3.34-2.45-3.34,0Z"/>
          <path class="cls-3" d="M105.95,147.66c2.13.36,3.02-.54,2.67-2.67-1.76-2.21-4.88.91-2.67,2.67Z"/>
          <path class="cls-3" d="M119.97,147.66c2.13.36,3.02-.54,2.67-2.67-1.76-2.21-4.88.91-2.67,2.67Z"/>
          <path class="cls-3" d="M176.71,147.66c2.13.36,3.02-.54,2.68-2.67-1.76-2.21-4.89.91-2.68,2.67Z"/>
          <path class="cls-3" d="M190.73,147.66c2.13.36,3.02-.54,2.68-2.67-1.76-2.21-4.88.91-2.68,2.67Z"/>
          <path class="cls-3" d="M204.41,146.32c.67,1.56,2.67,1.56,3.34,0,0-2.45-3.34-2.45-3.34,0Z"/>
          <path class="cls-3" d="M62.89,146.32c3.68,3.47,2.02-4.83,0,0h0Z"/>
          <path class="cls-3" d="M77.25,146.66c.37.07.52.37.66.67,1.36.14,2.11-.34,2.01-1.67-.36-1.61-3.3-1.19-2.67,1Z"/>
          <path class="cls-3" d="M218.76,146.66c.38.07.53.37.68.67,1.36.14,2.1-.34,2-1.67-.35-1.61-3.3-1.19-2.68,1Z"/>
          <path class="cls-3" d="M233.12,146.32c3.68,3.47,2.02-4.83,0,0h0Z"/>
          <path class="cls-3" d="M49.21,145.32c0,1.01,1.18.83,2.01,1,.45-1.5-1.35-1.62-2.01-1Z"/>
          <path class="cls-3" d="M247.48,146.32c.74-.25,1.81-.19,2-1-.66-.62-2.46-.5-2,1Z"/>
          <path class="cls-3" d="M134.32,159.34v1h2.01c.45-1.5-1.35-1.62-2.01-1Z"/>
          <path class="cls-3" d="M148.34,160.68h2.01c.76-2.24-2.78-2.24-2.01,0Z"/>
          <path class="cls-3" d="M162.36,159.34v1h2.01c.45-1.5-1.35-1.62-2.01-1Z"/>
          <path class="cls-3" d="M687.5-.87c-6.99.93-5.87,11.01.67,11.01,7.7,0,6.82-12.01-.67-11.01Z"/>
          <path class="cls-3" d="M701.19-.87c-2.97.53-4.68,2.18-4.68,5.34,0,7.62,11.69,7.26,11.35-.33-.14-3.16-2.39-5.79-6.67-5.01Z"/>
          <path class="cls-3" d="M715.54-.87c-2.42.45-3.89,1.8-4.34,3-3.98,10.71,14.39,9.97,10.68,0-.75-2.02-2.59-3.7-6.34-3Z"/>
          <path class="cls-3" d="M729.55-.87c-2.42.45-3.89,1.8-4.34,3-3.99,10.71,14.39,9.97,10.68,0-.75-2.02-2.59-3.7-6.34-3Z"/>
          <path class="cls-3" d="M743.57-.87c-2.42.45-3.89,1.8-4.34,3-3.99,10.71,14.39,9.97,10.68,0-.75-2.02-2.58-3.7-6.34-3Z"/>
          <path class="cls-3" d="M757.92-.87c-2.97.53-4.67,2.18-4.67,5.34,0,7.62,11.69,7.26,11.35-.33-.14-3.16-2.39-5.79-6.68-5.01Z"/>
          <path class="cls-3" d="M772.28-.87c-6.99.93-5.87,11.01.67,11.01,7.71,0,6.82-12.01-.67-11.01Z"/>
          <path class="cls-3" d="M630.76-.54c-3.64.51-4.68,2.33-4.68,5.01,0,9.64,16.03,3.7,9.35-3.68-1-1.1-2.77-1.6-4.67-1.33Z"/>
          <path class="cls-3" d="M644.11-.54c-2.76.66-4.01,2.37-4.01,5.01,0,7.67,11,6.65,10.69-.33-.14-3.16-2.28-5.73-6.68-4.68Z"/>
          <path class="cls-3" d="M661.13,9.81c6.26-1.2,3.94-9.81.33-10.68-1.03-.25-1.77-.12-3.34.33-7.06,2.01-2.81,11.45,3.01,10.35Z"/>
          <path class="cls-3" d="M672.14-.54c-7,1.9-3.36,11.83,3.34,10.35,6.35-1.41,4.18-12.38-3.34-10.35Z"/>
          <path class="cls-3" d="M785.63-.54c-7,1.9-3.36,11.83,3.34,10.35,6.35-1.41,4.17-12.38-3.34-10.35Z"/>
          <path class="cls-3" d="M802.65,9.81c6.26-1.2,3.95-9.81.33-10.68-1.02-.25-1.76-.12-3.34.33-7.06,2.01-2.8,11.45,3,10.35Z"/>
          <path class="cls-3" d="M814.33-.54c-2.76.66-4,2.37-4,5.01,0,7.67,11,6.65,10.68-.33-.15-3.16-2.27-5.73-6.68-4.68Z"/>
          <path class="cls-3" d="M829.02-.54c-3.64.51-4.67,2.33-4.67,5.01,0,9.64,16.03,3.7,9.35-3.68-1-1.1-2.78-1.6-4.68-1.33Z"/>
          <path class="cls-3" d="M602.05-.21c-6.12,1.28-4.3,9.98,1.33,9.68,5.82-.3,6.17-11.23-1.33-9.68Z"/>
          <path class="cls-3" d="M622.41,2.8c-.55-2.2-2.56-4.21-6.67-3.01-2.34.69-3.15,2.33-3.34,3.68-1.33,9.29,11.96,7.24,10.01-.67Z"/>
          <path class="cls-3" d="M848.72,2.8c-.54-2.2-2.56-4.21-6.68-3.01-2.34.69-3.15,2.33-3.34,3.68-1.32,9.29,11.96,7.24,10.02-.67Z"/>
          <path class="cls-3" d="M857.06-.21c-6.12,1.28-4.31,9.98,1.34,9.68,5.82-.3,6.16-11.23-1.34-9.68Z"/>
          <path class="cls-3" d="M573.68.12c-2.59.56-3.67,1.8-3.67,4.35,0,6.63,9.67,5.86,9.35-.33-.15-2.77-1.89-4.83-5.68-4.01Z"/>
          <path class="cls-3" d="M587.36,9.14c8,2.07,8.39-11.71,0-9.02-4.01,1.29-4.29,7.91,0,9.02Z"/>
          <path class="cls-3" d="M870.41,9.14c7.99,2.07,8.39-11.71,0-9.02-4.01,1.29-4.29,7.91,0,9.02Z"/>
          <path class="cls-3" d="M885.43.12c-2.59.56-3.68,1.8-3.68,4.35,0,6.63,9.68,5.86,9.35-.33-.14-2.77-1.89-4.83-5.67-4.01Z"/>
          <path class="cls-3" d="M559.33.46c-2.35.68-2.92,2.08-3.01,3.68-.39,7.4,9.72,5.55,8.69-.67-.35-2.11-1.96-4.09-5.68-3.01Z"/>
          <path class="cls-3" d="M899.12.46c-2.35.68-2.92,2.08-3.01,3.68-.39,7.4,9.71,5.55,8.68-.67-.35-2.11-1.95-4.09-5.67-3.01Z"/>
          <path class="cls-3" d="M531.62.79c-5.48,1.04-3.32,7.96,1,7.68,5.45-.36,3.92-8.61-1-7.68Z"/>
          <path class="cls-3" d="M544.64.79c-1.2.45-2.11,1.24-2.33,2.01-2.47,8.31,10.02,6.75,8,0-.61-2.07-3.14-2.94-5.67-2.01Z"/>
          <path class="cls-3" d="M913.14.79c-1.2.45-2.11,1.24-2.34,2.01-2.47,8.31,10.02,6.75,8.01,0-.61-2.07-3.14-2.94-5.67-2.01Z"/>
          <path class="cls-3" d="M928.16.79c-5.48,1.04-3.32,7.96,1,7.68,5.45-.36,3.92-8.61-1-7.68Z"/>
          <path class="cls-3" d="M517.27,1.13c-9,2.49,5.31,12.57,4.68,3.01-.17-2.51-2.13-3.71-4.68-3.01Z"/>
          <path class="cls-3" d="M941.84,1.13c-9.01,2.49,5.31,12.57,4.67,3.01-.16-2.51-2.13-3.71-4.67-3.01Z"/>
          <path class="cls-3" d="M503.25,1.46c-2.38.55-2.67,1.95-2.67,3.01,0,4.25,7.07,4.53,6.67-.33-.2-2.4-1.99-3.14-4.01-2.68Z"/>
          <path class="cls-3" d="M956.19,1.46c-1.77.55-2.47,1.53-2.34,3.34.35,4.57,7,3.71,6.68-.66-.15-1.98-1.41-3.58-4.34-2.68Z"/>
          <path class="cls-3" d="M489.23,1.8c-7.3,1.94,4.32,10.16,3.67,2.34-.16-2.01-1.84-2.83-3.67-2.34Z"/>
          <path class="cls-3" d="M473.54,6.14c2.2,1.95,5.69-.41,4.01-3.34-2.2-1.95-5.69.41-4.01,3.34Z"/>
          <path class="cls-3" d="M459.52,4.8c.48.64,1.03,1.2,1.67,1.67,1.36-.19,2.14-.97,2.33-2.33-.8-2.12-3.83-1.95-4.01.66Z"/>
          <path class="cls-3" d="M446.51,3.8c-.5.06-.31.8-.34,1.33,2.27,1.97,2.63-3.07.34-1.33Z"/>
          <path class="cls-3" d="M659.46,13.48c-2.63.26-4.23,1.75-4.67,3-3.41,9.79,13.15,8.97,10.02,0-.56-1.6-2.21-3.32-5.34-3Z"/>
          <path class="cls-3" d="M672.81,13.48c-2.87.52-4.34,2-4.34,5.01,0,7.25,11.01,6.88,10.68-.33-.13-2.99-2.11-5.44-6.34-4.68Z"/>
          <path class="cls-3" d="M685.83,23.49c8.49,3.29,10.93-12.33,1-10.01-6.02,1.4-3.82,8.92-1,10.01Z"/>
          <path class="cls-3" d="M699.85,23.49c8.49,3.29,10.93-12.33,1-10.01-6.02,1.4-3.82,8.92-1,10.01Z"/>
          <path class="cls-3" d="M718.21,13.14c-1.02-.24-1.77-.11-3.34.34-7.05,2.01-2.8,11.45,3,10.35,6.27-1.2,3.95-9.81.34-10.69Z"/>
          <path class="cls-3" d="M732.23,13.14c-1.02-.24-1.78-.11-3.34.34-7.05,2.01-2.8,11.45,3.01,10.35,6.26-1.2,3.94-9.81.34-10.69Z"/>
          <path class="cls-3" d="M746.25,13.14c-1.02-.24-1.77-.11-3.34.34-7.05,2.01-2.8,11.45,3.01,10.35,6.26-1.2,3.94-9.81.34-10.69Z"/>
          <path class="cls-3" d="M756.59,23.49c8.5,3.29,10.93-12.33,1-10.01-6.02,1.4-3.82,8.92-1,10.01Z"/>
          <path class="cls-3" d="M770.61,23.49c8.49,3.29,10.92-12.33,1-10.01-6.02,1.4-3.83,8.92-1,10.01Z"/>
          <path class="cls-3" d="M786.3,13.48c-2.87.52-4.34,2-4.34,5.01,0,7.25,11.01,6.88,10.68-.33-.14-2.99-2.12-5.44-6.34-4.68Z"/>
          <path class="cls-3" d="M800.98,13.48c-2.62.26-4.24,1.75-4.67,3-3.42,9.79,13.15,8.97,10.02,0-.56-1.6-2.21-3.32-5.35-3Z"/>
          <path class="cls-3" d="M617.07,13.81c-3.15.31-4.54,1.98-4.67,4.35-.47,8.49,14.6,4.92,9.01-2.68-.66-.88-2.56-1.84-4.34-1.67Z"/>
          <path class="cls-3" d="M630.42,13.81c-2.68.54-4,2.01-4,4.68,0,6.95,10.36,6.33,10.01-.33-.15-2.88-2.06-5.14-6.01-4.35Z"/>
          <path class="cls-3" d="M650.45,16.82c-.54-2.2-2.55-4.21-6.67-3.01-2.34.69-3.15,2.33-3.34,3.68-1.32,9.29,11.96,7.24,10.02-.67Z"/>
          <path class="cls-3" d="M820.67,16.82c-.54-2.2-2.55-4.21-6.67-3.01-2.34.69-3.14,2.33-3.34,3.68-1.33,9.29,11.96,7.24,10.01-.67Z"/>
          <path class="cls-3" d="M828.69,13.81c-2.68.54-4.01,2.01-4.01,4.68,0,6.95,10.36,6.33,10.01-.33-.15-2.88-2.05-5.14-6-4.35Z"/>
          <path class="cls-3" d="M843.37,13.81c-3.14.31-4.54,1.98-4.67,4.35-.47,8.49,14.6,4.92,9.02-2.68-.65-.88-2.56-1.84-4.35-1.67Z"/>
          <path class="cls-3" d="M588.37,14.15c-2.6.41-4,1.77-4,4.34,0,6.31,9.66,5.9,9.35-.33-.13-2.49-1.91-4.55-5.34-4.01Z"/>
          <path class="cls-3" d="M601.71,14.15c-2.39.63-3.17,2.17-3.33,3.67-.53,4.97,3.3,5.72,5.67,5.34,5.46-.87,4.7-10.88-2.34-9.01Z"/>
          <path class="cls-3" d="M856.73,14.15c-2.4.63-3.18,2.17-3.34,3.67-.53,4.97,3.3,5.72,5.67,5.34,5.46-.87,4.7-10.88-2.33-9.01Z"/>
          <path class="cls-3" d="M871.41,14.15c-2.6.41-4.01,1.77-4.01,4.34,0,6.31,9.66,5.9,9.35-.33-.13-2.49-1.91-4.55-5.34-4.01Z"/>
          <path class="cls-3" d="M579.02,17.49c-.35-2.11-1.95-4.09-5.68-3.01-2.34.68-2.92,2.08-3,3.68-.4,7.4,9.71,5.55,8.67-.67Z"/>
          <path class="cls-3" d="M890.77,17.49c-.35-2.11-1.95-4.09-5.68-3.01-2.35.68-2.92,2.08-3,3.68-.39,7.4,9.72,5.55,8.68-.67Z"/>
          <path class="cls-3" d="M545.64,14.81c-5.47,1.04-3.32,7.96,1,7.68,5.45-.35,3.92-8.61-1-7.68Z"/>
          <path class="cls-3" d="M558.99,14.81c-1.19.45-2.11,1.24-2.33,2.01-2.47,8.31,10.02,6.75,8.01,0-.62-2.07-3.14-2.94-5.68-2.01Z"/>
          <path class="cls-3" d="M898.78,14.81c-1.2.45-2.11,1.24-2.34,2.01-2.46,8.31,10.02,6.75,8.01,0-.62-2.07-3.14-2.94-5.67-2.01Z"/>
          <path class="cls-3" d="M914.14,14.81c-5.48,1.04-3.32,7.96,1,7.68,5.44-.35,3.92-8.61-1-7.68Z"/>
          <path class="cls-3" d="M531.29,15.15c-9,2.49,5.31,12.57,4.68,3.01-.17-2.51-2.13-3.71-4.68-3.01Z"/>
          <path class="cls-3" d="M927.82,15.15c-9.01,2.49,5.31,12.57,4.67,3.01-.16-2.51-2.13-3.71-4.67-3.01Z"/>
          <path class="cls-3" d="M517.27,15.48c-8.23,2.56,5.69,11.36,4.34,2.34-.25-1.67-1.34-3.27-4.34-2.34Z"/>
          <path class="cls-3" d="M941.84,15.48c-8.24,2.56,5.68,11.36,4.33,2.34-.24-1.67-1.34-3.27-4.33-2.34Z"/>
          <path class="cls-3" d="M502.92,15.82c-6.89,2.47,4.64,10,4.01,2.34-.15-1.82-1.17-3.35-4.01-2.34Z"/>
          <path class="cls-3" d="M956.19,15.82c-6.89,2.47,4.64,10,4,2.34-.15-1.82-1.17-3.35-4-2.34Z"/>
          <path class="cls-3" d="M489.57,16.15c-7.15,1.39,3.7,8.93,3,2.01-.13-1.3-.99-2.4-3-2.01Z"/>
          <path class="cls-3" d="M474.55,16.82c-3.93,3.49,4.22,5.44,3,1-.23-.85-1.47-1.97-3-1Z"/>
          <path class="cls-3" d="M460.19,19.16c.37.07.52.36.67.66,1.36.14,2.11-.34,2-1.66-.36-1.62-3.3-1.19-2.67,1Z"/>
          <path class="cls-3" d="M645.11,27.83c-3.14.31-4.54,1.98-4.68,4.34-.46,8.49,14.61,4.92,9.02-2.68-.66-.88-2.56-1.84-4.34-1.66Z"/>
          <path class="cls-3" d="M660.13,37.51c5.82-.3,6.17-11.23-1.33-9.68-6.13,1.27-4.3,9.97,1.33,9.68Z"/>
          <path class="cls-3" d="M672.48,27.83c-2.64.65-3.52,2.32-3.67,4-.81,8.59,11.07,6.87,10.01-.33-.37-2.51-2.19-4.7-6.34-3.67Z"/>
          <path class="cls-3" d="M686.5,27.83c-2.34.68-3.14,2.32-3.34,3.67-1.33,9.3,11.96,7.24,10.01-.67-.54-2.2-2.55-4.21-6.67-3Z"/>
          <path class="cls-3" d="M707.19,30.84c-.54-2.2-2.55-4.21-6.67-3-2.34.68-3.15,2.32-3.34,3.67-1.32,9.3,11.96,7.24,10.01-.67Z"/>
          <path class="cls-3" d="M714.87,27.83c-2.34.68-3.14,2.32-3.33,3.67-1.33,9.3,11.95,7.24,10.01-.67-.54-2.2-2.55-4.21-6.68-3Z"/>
          <path class="cls-3" d="M728.89,27.83c-2.34.68-3.14,2.32-3.34,3.67-1.32,9.3,11.96,7.24,10.01-.67-.54-2.2-2.55-4.21-6.68-3Z"/>
          <path class="cls-3" d="M742.9,27.83c-2.34.68-3.14,2.32-3.33,3.67-1.33,9.3,11.95,7.24,10.01-.67-.54-2.2-2.55-4.21-6.68-3Z"/>
          <path class="cls-3" d="M763.93,30.84c-.54-2.2-2.55-4.21-6.67-3-2.34.68-3.14,2.32-3.34,3.67-1.33,9.3,11.96,7.24,10.01-.67Z"/>
          <path class="cls-3" d="M771.27,27.83c-2.33.68-3.14,2.32-3.33,3.67-1.33,9.3,11.96,7.24,10.01-.67-.54-2.2-2.56-4.21-6.68-3Z"/>
          <path class="cls-3" d="M785.97,27.83c-2.64.65-3.52,2.32-3.67,4-.8,8.59,11.07,6.87,10.01-.33-.37-2.51-2.18-4.7-6.34-3.67Z"/>
          <path class="cls-3" d="M801.65,37.51c5.83-.3,6.17-11.23-1.33-9.68-6.12,1.27-4.31,9.97,1.33,9.68Z"/>
          <path class="cls-3" d="M815.33,27.83c-3.14.31-4.54,1.98-4.67,4.34-.47,8.49,14.59,4.92,9.02-2.68-.66-.88-2.57-1.84-4.35-1.66Z"/>
          <path class="cls-3" d="M616.4,28.17c-2.59.56-3.67,1.8-3.67,4.34,0,6.63,9.67,5.87,9.35-.33-.14-2.77-1.89-4.82-5.68-4.01Z"/>
          <path class="cls-3" d="M630.09,28.17c-3.65.93-4.84,5.53-2,8.01,7.29,6.4,12.31-10.65,2-8.01Z"/>
          <path class="cls-3" d="M828.35,28.17c-3.64.93-4.83,5.53-2,8.01,7.29,6.4,12.31-10.65,2-8.01Z"/>
          <path class="cls-3" d="M842.71,28.17c-2.59.56-3.67,1.8-3.67,4.34,0,6.63,9.67,5.87,9.35-.33-.15-2.77-1.89-4.82-5.67-4.01Z"/>
          <path class="cls-3" d="M588.03,28.5c-2.41.56-3.34,1.81-3.34,4.01,0,6.27,9.02,5.42,8.68-.33-.15-2.54-1.71-4.51-5.34-3.68Z"/>
          <path class="cls-3" d="M601.38,28.5c-2.33.8-2.53,2.14-2.67,3.01-.93,5.77,7.32,7.55,8.68,2.67,1.08-3.88-2.27-6.95-6.01-5.68Z"/>
          <path class="cls-3" d="M856.4,28.5c-2.34.8-2.53,2.14-2.68,3.01-.93,5.77,7.32,7.55,8.68,2.67,1.08-3.88-2.27-6.95-6-5.68Z"/>
          <path class="cls-3" d="M871.08,28.5c-2.41.56-3.34,1.81-3.34,4.01,0,6.27,9.02,5.42,8.68-.33-.15-2.54-1.71-4.51-5.34-3.68Z"/>
          <path class="cls-3" d="M560.33,36.51c4.85.31,5.82-8.38,0-7.68-5.27.64-3.98,7.42,0,7.68Z"/>
          <path class="cls-3" d="M573.34,28.83c-2.69.83-2.57,2.25-2.66,3.01-1.04,8.59,13.1,3.75,7.01-2.34-.69-.68-2.28-1.3-4.35-.67Z"/>
          <path class="cls-3" d="M885.09,28.83c-2.69.83-2.58,2.25-2.67,3.01-1.03,8.59,13.1,3.75,7.01-2.34-.68-.68-2.28-1.3-4.34-.67Z"/>
          <path class="cls-3" d="M900.12,36.51c4.85.31,5.81-8.38,0-7.68-5.27.64-3.98,7.42,0,7.68Z"/>
          <path class="cls-3" d="M545.3,29.17c-9,2.49,5.31,12.57,4.68,3.01-.17-2.51-2.13-3.71-4.68-3.01Z"/>
          <path class="cls-3" d="M913.8,29.17c-9.01,2.49,5.31,12.57,4.67,3.01-.16-2.51-2.14-3.71-4.67-3.01Z"/>
          <path class="cls-3" d="M531.29,29.5c-8.23,2.56,5.68,11.36,4.35,2.34-.25-1.67-1.35-3.27-4.35-2.34Z"/>
          <path class="cls-3" d="M927.82,29.5c-8.24,2.56,5.68,11.36,4.33,2.34-.24-1.67-1.34-3.27-4.33-2.34Z"/>
          <path class="cls-3" d="M517.27,29.83c-6.89,2.47,4.64,10,4.01,2.34-.15-1.82-1.17-3.35-4.01-2.34Z"/>
          <path class="cls-3" d="M941.84,29.83c-6.89,2.47,4.64,10,4,2.34-.15-1.82-1.17-3.35-4-2.34Z"/>
          <path class="cls-3" d="M503.25,30.17c-2.09.64-2.58,3.15-1.33,4.34,3.92,3.74,6.87-6.01,1.33-4.34Z"/>
          <path class="cls-3" d="M956.52,30.17c-2.1.64-2.58,3.15-1.34,4.34,3.92,3.74,6.86-6.01,1.34-4.34Z"/>
          <path class="cls-3" d="M488.23,34.17c.97.43,2.37.43,3.34,0,.43-.97.43-2.37,0-3.34-2.46-1.38-4.72.88-3.34,3.34Z"/>
          <path class="cls-3" d="M474.55,33.84c.88,0,1.9.12,2.34-.34v-2c-1.66-1.39-3.73.68-2.34,2.34Z"/>
          <path class="cls-3" d="M701.85,42.18c-3.15.31-4.55,1.98-4.68,4.34-.46,8.49,14.6,4.92,9.01-2.67-.65-.89-2.56-1.85-4.33-1.67Z"/>
          <path class="cls-3" d="M715.87,42.18c-6.45,1-4.48,9.68.67,9.68,5.98,0,6.95-10.85-.67-9.68Z"/>
          <path class="cls-3" d="M729.89,42.18c-6.45,1-4.48,9.68.67,9.68,5.98,0,6.95-10.85-.67-9.68Z"/>
          <path class="cls-3" d="M743.91,42.18c-6.46,1-4.48,9.68.67,9.68,5.98,0,6.95-10.85-.67-9.68Z"/>
          <path class="cls-3" d="M758.59,42.18c-3.15.31-4.55,1.98-4.67,4.34-.47,8.49,14.59,4.92,9.02-2.67-.66-.89-2.57-1.85-4.35-1.67Z"/>
          <path class="cls-3" d="M644.78,42.51c-2.65.43-4.01,1.68-4.01,4.34,0,6.35,9.67,5.94,9.35-.33-.13-2.58-1.84-4.57-5.34-4.01Z"/>
          <path class="cls-3" d="M658.46,42.51c-2.45.67-3.25,2.28-3.34,4.01-.4,7.65,10.02,6,9.35-.33-.27-2.62-2.09-4.74-6-3.68Z"/>
          <path class="cls-3" d="M672.48,42.51c-3.64.93-4.84,5.53-2.01,8.02,7.29,6.39,12.31-10.65,2.01-8.02Z"/>
          <path class="cls-3" d="M686.5,42.51c-1.77.56-2.78,1.77-3.01,2.67-2.39,9.4,11.25,7.51,9.35,0-.65-2.57-3.43-3.58-6.34-2.67Z"/>
          <path class="cls-3" d="M771.27,42.51c-1.77.56-2.77,1.77-3,2.67-2.39,9.4,11.25,7.51,9.34,0-.65-2.57-3.44-3.58-6.35-2.67Z"/>
          <path class="cls-3" d="M785.63,51.53c8,2.07,8.4-11.71,0-9.01-4,1.3-4.27,7.91,0,9.01Z"/>
          <path class="cls-3" d="M799.98,42.51c-2.44.67-3.24,2.28-3.33,4.01-.41,7.65,10.01,6,9.35-.33-.28-2.62-2.08-4.74-6.01-3.68Z"/>
          <path class="cls-3" d="M815,42.51c-2.65.43-4,1.68-4,4.34,0,6.35,9.66,5.94,9.34-.33-.13-2.58-1.84-4.57-5.34-4.01Z"/>
          <path class="cls-3" d="M616.4,42.85c-3.15.7-3.34,2.29-3.34,4,0,7.35,12.58,4.24,8.01-2.67-.7-1.05-2.41-1.84-4.68-1.33Z"/>
          <path class="cls-3" d="M629.76,42.85c-2.34.8-2.53,2.13-2.67,3-.93,5.77,7.32,7.56,8.68,2.68,1.08-3.88-2.27-6.95-6.01-5.68Z"/>
          <path class="cls-3" d="M828.02,42.85c-2.34.8-2.53,2.13-2.67,3-.94,5.77,7.32,7.56,8.68,2.68,1.08-3.88-2.27-6.95-6.01-5.68Z"/>
          <path class="cls-3" d="M842.71,42.85c-3.15.7-3.34,2.29-3.34,4,0,7.35,12.58,4.24,8.01-2.67-.7-1.05-2.41-1.84-4.67-1.33Z"/>
          <path class="cls-3" d="M588.03,43.18c-2.23.57-3,1.65-3,3.67,0,5.81,8.01,4.98,8.01,0,0-2.68-1.53-4.56-5.01-3.67Z"/>
          <path class="cls-3" d="M601.38,43.18c-1.2.44-2.11,1.23-2.33,2-2.46,8.32,10.02,6.75,8.01,0-.62-2.06-3.15-2.94-5.68-2Z"/>
          <path class="cls-3" d="M856.4,43.18c-1.2.44-2.11,1.23-2.34,2-2.46,8.32,10.02,6.75,8.01,0-.62-2.06-3.14-2.94-5.67-2Z"/>
          <path class="cls-3" d="M871.08,43.18c-2.24.57-3.01,1.65-3.01,3.67,0,5.81,8.01,4.98,8.01,0,0-2.68-1.52-4.56-5-3.67Z"/>
          <path class="cls-3" d="M559.99,43.52c-2.1.45-3,1.62-3,3.34,0,5.31,7.65,4.42,7.34-.33-.13-2.02-1.48-3.62-4.34-3Z"/>
          <path class="cls-3" d="M573.34,43.52c-1.87.64-2.88,1.49-2.33,4.34.84,4.32,8.41,3.47,7.34-2.01-.34-1.71-1.69-3.47-5.02-2.33Z"/>
          <path class="cls-3" d="M885.09,43.52c-1.88.64-2.89,1.49-2.33,4.34.84,4.32,8.41,3.47,7.34-2.01-.33-1.71-1.69-3.47-5.01-2.33Z"/>
          <path class="cls-3" d="M899.79,43.52c-2.11.45-3.01,1.62-3.01,3.34,0,5.31,7.66,4.42,7.34-.33-.13-2.02-1.48-3.62-4.33-3Z"/>
          <path class="cls-3" d="M545.3,43.85c-1.77.55-2.47,1.54-2.33,3.34.34,4.57,7,3.71,6.68-.67-.15-1.97-1.41-3.58-4.35-2.67Z"/>
          <path class="cls-3" d="M913.8,43.85c-1.78.55-2.47,1.54-2.34,3.34.34,4.57,7,3.71,6.67-.67-.14-1.97-1.41-3.58-4.33-2.67Z"/>
          <path class="cls-3" d="M531.29,44.18c-6.89,2.47,4.64,9.99,4.01,2.34-.15-1.82-1.18-3.35-4.01-2.34Z"/>
          <path class="cls-3" d="M927.82,44.18c-6.89,2.47,4.64,9.99,4,2.34-.15-1.82-1.17-3.35-4-2.34Z"/>
          <path class="cls-3" d="M517.6,44.52c-2.09.64-2.58,3.15-1.33,4.34,3.91,3.74,6.86-6.01,1.33-4.34Z"/>
          <path class="cls-3" d="M942.17,44.52c-2.1.64-2.58,3.15-1.34,4.34,3.92,3.74,6.86-6.01,1.34-4.34Z"/>
          <path class="cls-3" d="M503.59,44.85c-2.19.49-2.1,1.35-2.01,2.34.29,3.05,6.73,2.1,4.34-1.67-.36-.58-1.2-.92-2.33-.67Z"/>
          <path class="cls-3" d="M956.86,44.85c-2.19.49-2.1,1.35-2.01,2.34.29,3.05,6.73,2.1,4.34-1.67-.36-.58-1.21-.92-2.33-.67Z"/>
          <path class="cls-3" d="M488.23,47.19c.67,1.55,2.68,1.55,3.34,0,0-2.45-3.34-2.45-3.34,0Z"/>
          <path class="cls-3" d="M687.84,56.54c-9,.96-1.64,12.99,3.67,7.68,3.09-3.1-.06-8.07-3.67-7.68Z"/>
          <path class="cls-3" d="M701.52,56.54c-2.65.43-4.01,1.68-4.01,4.34,0,6.35,9.67,5.94,9.35-.33-.13-2.58-1.83-4.57-5.34-4.01Z"/>
          <path class="cls-3" d="M715.54,56.54c-2.58.56-3.67,1.8-3.67,4.34,0,6.64,9.67,5.88,9.34-.33-.14-2.76-1.89-4.82-5.67-4.01Z"/>
          <path class="cls-3" d="M729.55,56.54c-2.58.56-3.67,1.8-3.67,4.34,0,6.64,9.67,5.88,9.34-.33-.14-2.76-1.89-4.82-5.67-4.01Z"/>
          <path class="cls-3" d="M743.57,56.54c-2.58.56-3.67,1.8-3.67,4.34,0,6.64,9.67,5.88,9.35-.33-.15-2.76-1.89-4.82-5.68-4.01Z"/>
          <path class="cls-3" d="M758.26,56.54c-2.65.43-4.01,1.68-4.01,4.34,0,6.35,9.67,5.94,9.35-.33-.13-2.58-1.84-4.57-5.34-4.01Z"/>
          <path class="cls-3" d="M772.61,56.54c-8.99.96-1.64,12.99,3.68,7.68,3.1-3.1-.06-8.07-3.68-7.68Z"/>
          <path class="cls-3" d="M644.44,56.87c-2.41.55-3.34,1.81-3.34,4,0,6.27,9.02,5.42,8.68-.33-.15-2.54-1.71-4.51-5.34-3.67Z"/>
          <path class="cls-3" d="M664.13,59.87c-.35-2.1-1.95-4.08-5.67-3-2.35.68-2.92,2.08-3.01,3.67-.39,7.41,9.72,5.55,8.68-.67Z"/>
          <path class="cls-3" d="M672.14,56.87c-2.34.8-2.53,2.14-2.67,3-.93,5.77,7.32,7.56,8.68,2.68,1.08-3.88-2.27-6.95-6.01-5.68Z"/>
          <path class="cls-3" d="M785.63,56.87c-2.34.8-2.53,2.14-2.66,3-.94,5.77,7.31,7.56,8.67,2.68,1.08-3.88-2.27-6.95-6.01-5.68Z"/>
          <path class="cls-3" d="M805.65,59.87c-.35-2.1-1.95-4.08-5.68-3-2.34.68-2.92,2.08-3,3.67-.4,7.41,9.71,5.55,8.67-.67Z"/>
          <path class="cls-3" d="M814.66,56.87c-2.4.55-3.33,1.81-3.33,4,0,6.27,9.02,5.42,8.68-.33-.15-2.54-1.71-4.51-5.35-3.67Z"/>
          <path class="cls-3" d="M602.72,57.2c-5.27.64-3.99,7.42,0,7.68,4.84.31,5.82-8.38,0-7.68Z"/>
          <path class="cls-3" d="M616.07,57.2c-2.01.62-3.24,1.66-2.67,4.68.88,4.72,9.11,3.86,8.01-2.01-.34-1.83-1.85-3.75-5.34-2.67Z"/>
          <path class="cls-3" d="M629.76,57.2c-1.2.44-2.11,1.23-2.34,2-2.46,8.32,10.02,6.76,8.01,0-.62-2.06-3.14-2.94-5.67-2Z"/>
          <path class="cls-3" d="M828.02,57.2c-1.2.44-2.11,1.23-2.34,2-2.47,8.32,10.02,6.76,8.01,0-.62-2.06-3.15-2.94-5.68-2Z"/>
          <path class="cls-3" d="M842.38,57.2c-2.02.62-3.24,1.66-2.68,4.68.89,4.72,9.11,3.86,8.01-2.01-.35-1.83-1.85-3.75-5.34-2.67Z"/>
          <path class="cls-3" d="M857.73,57.2c-5.28.64-3.99,7.42,0,7.68,4.84.31,5.81-8.38,0-7.68Z"/>
          <path class="cls-3" d="M588.03,57.54c-2.09.56-2.83,1.29-2.67,3.67.33,5.08,8.04,4.19,7.34-1-.26-1.92-1.47-3.54-4.67-2.67Z"/>
          <path class="cls-3" d="M871.08,57.54c-2.1.56-2.83,1.29-2.68,3.67.34,5.08,8.04,4.19,7.35-1-.26-1.92-1.46-3.54-4.67-2.67Z"/>
          <path class="cls-3" d="M560.33,57.87c-2.05.33-2.92,1.61-3,2.67-.53,6.56,9.17,2.7,6.01-1.67-.34-.46-1.45-1.25-3.01-1Z"/>
          <path class="cls-3" d="M573.34,57.87c-1.65.65-1.9,1.68-1.99,2.34-.88,6.13,8.27,4.79,6.67-.67-.54-1.84-2.63-2.47-4.68-1.67Z"/>
          <path class="cls-3" d="M885.09,57.87c-1.65.65-1.91,1.68-2,2.34-.88,6.13,8.28,4.79,6.68-.67-.54-1.84-2.62-2.47-4.68-1.67Z"/>
          <path class="cls-3" d="M900.12,57.87c-2.06.33-2.92,1.61-3.01,2.67-.53,6.56,9.18,2.7,6.01-1.67-.33-.46-1.45-1.25-3-1Z"/>
          <path class="cls-3" d="M545.64,58.2c-7.3,1.94,4.31,10.16,3.68,2.34-.17-2.01-1.85-2.82-3.68-2.34Z"/>
          <path class="cls-3" d="M914.14,58.2c-7.3,1.94,4.31,10.16,3.67,2.34-.16-2.03-1.85-2.82-3.67-2.34Z"/>
          <path class="cls-3" d="M531.62,58.54c-6.49,1.97,4.01,8.66,3.34,2.01-.15-1.44-1.15-2.66-3.34-2.01Z"/>
          <path class="cls-3" d="M928.16,58.54c-6.5,1.97,4.01,8.66,3.34,2.01-.15-1.44-1.15-2.66-3.34-2.01Z"/>
          <path class="cls-3" d="M942.51,58.87c-2.19.49-2.1,1.35-2,2.34.28,3.06,6.72,2.1,4.34-1.67-.36-.58-1.21-.92-2.34-.67Z"/>
          <path class="cls-3" d="M516.6,62.55c.97.43,2.37.43,3.34,0,.43-.97.43-2.37,0-3.34-2.46-1.38-4.72.89-3.34,3.34Z"/>
          <path class="cls-3" d="M502.25,61.21c.67,1.55,2.68,1.55,3.34,0,0-2.45-3.34-2.45-3.34,0Z"/>
          <path class="cls-3" d="M955.52,61.21c.67,1.55,2.67,1.55,3.34,0,0-2.45-3.34-2.45-3.34,0Z"/>
          <path class="cls-3" d="M488.9,60.54c.88.16,1.13,1.84,2.01,1v-1.33c-.43-.46-2-.58-2.01.33Z"/>
          <path class="cls-3" d="M687.5,71.23c-2.34.42-3.68,1.76-3.68,4,0,5.87,9.02,5.45,8.68-.34-.13-2.3-1.83-4.24-5-3.66Z"/>
          <path class="cls-3" d="M701.52,71.23c-2.34.42-3.68,1.76-3.68,4,0,5.87,9.02,5.45,8.68-.34-.13-2.3-1.83-4.24-5-3.66Z"/>
          <path class="cls-3" d="M715.54,71.23c-2.4.55-3.34,1.8-3.34,4,0,6.27,9.02,5.42,8.68-.34-.15-2.54-1.7-4.5-5.34-3.66Z"/>
          <path class="cls-3" d="M729.55,71.23c-2.4.55-3.34,1.8-3.34,4,0,6.27,9.02,5.42,8.68-.34-.15-2.54-1.7-4.5-5.34-3.66Z"/>
          <path class="cls-3" d="M743.57,71.23c-2.4.55-3.33,1.8-3.33,4,0,6.27,9.01,5.42,8.67-.34-.15-2.54-1.71-4.5-5.34-3.66Z"/>
          <path class="cls-3" d="M758.26,71.23c-2.34.42-3.67,1.76-3.67,4,0,5.87,9.01,5.45,8.68-.34-.14-2.3-1.84-4.24-5.01-3.66Z"/>
          <path class="cls-3" d="M772.28,71.23c-2.34.42-3.67,1.76-3.67,4,0,5.87,9.01,5.45,8.68-.34-.13-2.3-1.84-4.24-5.01-3.66Z"/>
          <path class="cls-3" d="M644.44,71.56c-5.23,1.36-2.4,7.67,1,7.67,4.75,0,5.68-9.41-1-7.67Z"/>
          <path class="cls-3" d="M658.46,71.56c-2.69.82-2.58,2.25-2.68,3-1.03,8.59,13.1,3.75,7.01-2.33-.68-.68-2.28-1.3-4.33-.67Z"/>
          <path class="cls-3" d="M672.14,71.56c-1.19.44-2.1,1.23-2.34,2-2.46,8.31,10.02,6.76,8.01,0-.62-2.07-3.14-2.94-5.67-2Z"/>
          <path class="cls-3" d="M785.63,71.56c-1.2.44-2.11,1.23-2.33,2-2.47,8.31,10.02,6.76,8.01,0-.61-2.07-3.14-2.94-5.68-2Z"/>
          <path class="cls-3" d="M799.98,71.56c-2.69.82-2.57,2.25-2.66,3-1.04,8.59,13.1,3.75,7.01-2.33-.69-.68-2.28-1.3-4.35-.67Z"/>
          <path class="cls-3" d="M814.66,71.56c-5.21,1.36-2.4,7.67,1,7.67,4.75,0,5.67-9.41-1-7.67Z"/>
          <path class="cls-3" d="M616.4,71.89c-2.09.56-2.83,1.29-2.67,3.67.34,5.08,8.04,4.19,7.35-1-.26-1.92-1.47-3.54-4.68-2.67Z"/>
          <path class="cls-3" d="M629.76,71.89c-7.11,2.99,3.27,11.15,5.34,5.01,1.2-3.57-2.03-6.4-5.34-5.01Z"/>
          <path class="cls-3" d="M828.02,71.89c-7.1,2.99,3.28,11.15,5.34,5.01,1.2-3.57-2.04-6.4-5.34-5.01Z"/>
          <path class="cls-3" d="M842.71,71.89c-2.09.56-2.83,1.29-2.67,3.67.34,5.08,8.04,4.19,7.34-1-.26-1.92-1.47-3.54-4.67-2.67Z"/>
          <path class="cls-3" d="M588.03,72.23c-1.78.55-2.47,1.53-2.34,3.34.34,4.57,7,3.71,6.68-.67-.15-1.98-1.41-3.57-4.34-2.67Z"/>
          <path class="cls-3" d="M601.71,72.23c-1.65.65-1.91,1.67-2,2.33-.88,6.13,8.28,4.79,6.68-.67-.54-1.83-2.63-2.47-4.68-1.66Z"/>
          <path class="cls-3" d="M856.73,72.23c-1.66.65-1.91,1.67-2,2.33-.88,6.13,8.28,4.79,6.67-.67-.54-1.83-2.63-2.47-4.67-1.66Z"/>
          <path class="cls-3" d="M871.08,72.23c-1.78.55-2.47,1.53-2.34,3.34.34,4.57,7,3.71,6.67-.67-.14-1.98-1.41-3.57-4.33-2.67Z"/>
          <path class="cls-3" d="M573.68,72.55c-6.89,2.47,4.64,10,4.01,2.34-.15-1.81-1.18-3.35-4.01-2.34Z"/>
          <path class="cls-3" d="M885.43,72.55c-6.89,2.47,4.64,10,4,2.34-.15-1.81-1.17-3.35-4-2.34Z"/>
          <path class="cls-3" d="M562,72.55c-.8.2-2.42-.42-2.67.34-1.27.39-1.52,1.82-1.33,3.67,2.53,4,8-1.47,4-4.01Z"/>
          <path class="cls-3" d="M901.78,72.55c-.79.2-2.43-.42-2.67.34-1.28.39-1.52,1.82-1.34,3.67,2.54,4,8.01-1.47,4-4.01Z"/>
          <path class="cls-3" d="M544.3,76.9c2.2,1.95,5.69-.42,4.01-3.34-2.2-1.95-5.69.42-4.01,3.34Z"/>
          <path class="cls-3" d="M912.8,76.9c2.2,1.95,5.69-.42,4.01-3.34-2.2-1.95-5.69.42-4.01,3.34Z"/>
          <path class="cls-3" d="M531.29,73.56c-3.93,3.49,4.23,5.44,3.01,1-.23-.85-1.47-1.97-3.01-1Z"/>
          <path class="cls-3" d="M927.82,73.56c-3.93,3.49,4.22,5.44,3,1-.23-.85-1.47-1.97-3-1Z"/>
          <path class="cls-3" d="M517.27,76.57c.89-.01,1.91.12,2.34-.34v-2c-1.66-1.39-3.72.68-2.34,2.34Z"/>
          <path class="cls-3" d="M941.84,76.57c.88-.01,1.9.12,2.34-.34v-2c-1.66-1.39-3.73.68-2.34,2.34Z"/>
          <path class="cls-3" d="M687.84,85.58c-5.28.64-3.99,7.42,0,7.68,4.85.31,5.81-8.38,0-7.68Z"/>
          <path class="cls-3" d="M701.52,85.58c-5.48,1.04-3.32,7.96,1,7.68,5.45-.36,3.92-8.61-1-7.68Z"/>
          <path class="cls-3" d="M715.54,85.58c-5.22,1.36-2.4,7.68,1,7.68,4.74,0,5.67-9.41-1-7.68Z"/>
          <path class="cls-3" d="M729.55,85.58c-5.22,1.36-2.4,7.68,1,7.68,4.75,0,5.67-9.41-1-7.68Z"/>
          <path class="cls-3" d="M743.57,85.58c-5.22,1.36-2.4,7.68,1,7.68,4.75,0,5.67-9.41-1-7.68Z"/>
          <path class="cls-3" d="M758.26,85.58c-5.48,1.04-3.32,7.96,1,7.68,5.45-.36,3.92-8.61-1-7.68Z"/>
          <path class="cls-3" d="M772.61,85.58c-5.27.64-3.98,7.42,0,7.68,4.85.31,5.82-8.38,0-7.68Z"/>
          <path class="cls-3" d="M644.78,85.91c-2.85.61-4.12,3.9-2,6.01,5.32,5.32,9.39-7.6,2-6.01Z"/>
          <path class="cls-3" d="M658.46,85.91c-1.88.64-2.9,1.49-2.34,4.34.85,4.32,8.42,3.47,7.34-2-.33-1.7-1.69-3.47-5-2.34Z"/>
          <path class="cls-3" d="M670.81,86.58c-.98,1.59-.82,4.42.33,5.68,4.24,2.82,8.44-2.48,5.34-6.01-1.59-.99-4.42-.81-5.67.34Z"/>
          <path class="cls-3" d="M784.3,86.58c-.99,1.59-.82,4.42.33,5.68,4.25,2.82,8.44-2.48,5.34-6.01-1.59-.99-4.43-.81-5.68.34Z"/>
          <path class="cls-3" d="M799.98,85.91c-1.87.64-2.88,1.49-2.33,4.34.84,4.32,8.41,3.47,7.35-2-.34-1.7-1.69-3.47-5.01-2.34Z"/>
          <path class="cls-3" d="M815,85.91c-2.84.61-4.11,3.9-2,6.01,5.33,5.32,9.4-7.6,2-6.01Z"/>
          <path class="cls-3" d="M616.4,86.24c-1.78.55-2.47,1.54-2.33,3.34.33,4.57,7,3.71,6.67-.67-.14-1.98-1.41-3.57-4.34-2.67Z"/>
          <path class="cls-3" d="M630.09,86.24c-1.66.65-1.91,1.68-2,2.34-.88,6.13,8.28,4.79,6.67-.67-.54-1.83-2.63-2.47-4.67-1.67Z"/>
          <path class="cls-3" d="M828.35,86.24c-1.65.65-1.91,1.68-2,2.34-.88,6.13,8.28,4.79,6.68-.67-.54-1.83-2.63-2.47-4.68-1.67Z"/>
          <path class="cls-3" d="M842.71,86.24c-1.78.55-2.47,1.54-2.34,3.34.34,4.57,7,3.71,6.68-.67-.15-1.98-1.41-3.57-4.34-2.67Z"/>
          <path class="cls-3" d="M588.7,86.58c-5.89,1.06-.69,7.54,2.34,5.01,2.03-1.7.37-5.5-2.34-5.01Z"/>
          <path class="cls-3" d="M600.38,91.25c.82,1.17,3.85,1.4,5.01.34.82-.85.87-3.11.33-4.35-2.48-2.65-7.49.04-5.34,4.01Z"/>
          <path class="cls-3" d="M855.39,91.25c.82,1.17,3.84,1.4,5,.34.82-.85.87-3.11.33-4.35-2.48-2.65-7.48.04-5.34,4.01Z"/>
          <path class="cls-3" d="M871.74,86.58c-5.9,1.06-.69,7.54,2.33,5.01,2.03-1.7.38-5.5-2.33-5.01Z"/>
          <path class="cls-3" d="M574.01,86.91c-2.09.64-2.59,3.15-1.34,4.34,3.92,3.74,6.86-6.01,1.34-4.34Z"/>
          <path class="cls-3" d="M885.77,86.91c-2.1.64-2.58,3.15-1.34,4.34,3.92,3.74,6.86-6.01,1.34-4.34Z"/>
          <path class="cls-3" d="M559.99,87.24c-5.44,1.96,3.69,7.6,3.01,1.67-.2-1.71-1.51-2.21-3.01-1.67Z"/>
          <path class="cls-3" d="M899.79,87.24c-5.45,1.96,3.67,7.6,3,1.67-.19-1.71-1.5-2.21-3-1.67Z"/>
          <path class="cls-3" d="M544.3,89.58c.48.64,1.03,1.2,1.67,1.67,1.36-.2,2.14-.98,2.34-2.34-.8-2.11-3.83-1.94-4.01.67Z"/>
          <path class="cls-3" d="M912.8,89.58c.48.64,1.03,1.2,1.67,1.67,1.36-.2,2.14-.98,2.34-2.34-.8-2.11-3.83-1.94-4.01.67Z"/>
          <path class="cls-3" d="M530.95,89.92c.37.07.53.37.67.67,1.36.14,2.1-.35,2-1.67-.35-1.61-3.3-1.18-2.67,1Z"/>
          <path class="cls-3" d="M927.49,89.92c.37.07.52.37.67.67,1.36.14,2.11-.35,2.01-1.67-.37-1.61-3.3-1.18-2.68,1Z"/>
          <path class="cls-3" d="M701.85,100.26c-6.05.83-2.48,8.7,2,6.68,3.21-1.45,1.85-7.2-2-6.68Z"/>
          <path class="cls-3" d="M716.21,100.26c-6.05.83-2.48,8.7,2,6.68,3.2-1.45,1.84-7.2-2-6.68Z"/>
          <path class="cls-3" d="M729.89,100.26c-2.1.45-3.01,1.62-3.01,3.34,0,5.32,7.66,4.43,7.35-.33-.13-2.02-1.48-3.62-4.34-3Z"/>
          <path class="cls-3" d="M744.24,100.26c-6.05.83-2.48,8.7,2.01,6.68,3.2-1.45,1.84-7.2-2.01-6.68Z"/>
          <path class="cls-3" d="M758.59,100.26c-6.05.83-2.48,8.7,2.01,6.68,3.2-1.45,1.84-7.2-2.01-6.68Z"/>
          <path class="cls-3" d="M658.8,100.6c-1.78.55-2.47,1.53-2.34,3.34.34,4.57,7,3.71,6.68-.67-.14-1.97-1.41-3.58-4.34-2.67Z"/>
          <path class="cls-3" d="M672.48,100.6c-1.66.65-1.91,1.68-2.01,2.33-.88,6.13,8.29,4.79,6.68-.67-.54-1.83-2.63-2.47-4.67-1.67Z"/>
          <path class="cls-3" d="M686.83,100.6c-1.66.65-1.91,1.68-2.01,2.33-.88,6.13,8.29,4.79,6.68-.67-.54-1.83-2.63-2.47-4.68-1.67Z"/>
          <path class="cls-3" d="M771.61,100.6c-1.66.65-1.91,1.68-2.01,2.33-.88,6.13,8.28,4.79,6.68-.67-.54-1.83-2.63-2.47-4.67-1.67Z"/>
          <path class="cls-3" d="M785.97,100.6c-1.66.65-1.91,1.68-2.01,2.33-.87,6.13,8.28,4.79,6.68-.67-.55-1.83-2.63-2.47-4.68-1.67Z"/>
          <path class="cls-3" d="M800.32,100.6c-1.78.55-2.47,1.53-2.33,3.34.33,4.57,6.99,3.71,6.67-.67-.15-1.97-1.41-3.58-4.34-2.67Z"/>
          <path class="cls-3" d="M630.42,100.93c-6.89,2.47,4.64,9.99,4.01,2.34-.15-1.81-1.17-3.35-4.01-2.34Z"/>
          <path class="cls-3" d="M642.77,105.6c.82,1.16,3.85,1.4,5,.33.82-.85.87-3.11.33-4.34-2.48-2.66-7.48.03-5.34,4.01Z"/>
          <path class="cls-3" d="M813,105.6c.83,1.16,3.85,1.4,5.01.33.82-.85.87-3.11.34-4.34-2.48-2.66-7.49.03-5.34,4.01Z"/>
          <path class="cls-3" d="M828.69,100.93c-6.89,2.47,4.64,9.99,4,2.34-.15-1.81-1.17-3.35-4-2.34Z"/>
          <path class="cls-3" d="M602.38,101.26c-2.09.64-2.58,3.15-1.33,4.35,3.92,3.74,6.86-6.02,1.33-4.35Z"/>
          <path class="cls-3" d="M618.74,100.93c-.8.2-2.42-.42-2.67.33-1.27.4-1.52,1.82-1.33,3.68,2.54,4,8.01-1.47,4-4.01Z"/>
          <path class="cls-3" d="M845.04,100.93c-.8.2-2.42-.42-2.66.33-1.28.4-1.52,1.82-1.34,3.68,2.54,4,8.01-1.47,4-4.01Z"/>
          <path class="cls-3" d="M857.39,101.26c-2.09.64-2.58,3.15-1.33,4.35,3.92,3.74,6.86-6.02,1.33-4.35Z"/>
          <path class="cls-3" d="M588.03,101.6c-4.86,2.4,4.05,7.42,3.34,1.67-.21-1.69-1.62-2.51-3.34-1.67Z"/>
          <path class="cls-3" d="M871.08,101.6c-4.86,2.4,4.04,7.42,3.33,1.67-.2-1.69-1.62-2.51-3.33-1.67Z"/>
          <path class="cls-3" d="M573.68,101.93c-3.93,3.49,4.22,5.44,3.01,1-.23-.84-1.47-1.98-3.01-1Z"/>
          <path class="cls-3" d="M885.43,101.93c-3.93,3.49,4.21,5.44,3.01,1-.23-.84-1.47-1.98-3.01-1Z"/>
          <path class="cls-3" d="M558.99,103.93c.67,1.55,2.67,1.55,3.34,0,0-2.45-3.34-2.45-3.34,0Z"/>
          <path class="cls-3" d="M898.78,103.93c.42,1.84,3.58,1.67,3.33-.67-.42-1.84-3.56-1.67-3.33.67Z"/>
          <path class="cls-3" d="M545.64,102.93c-.5.07-.3.81-.34,1.34,2.28,1.97,2.63-3.07.34-1.34Z"/>
          <path class="cls-3" d="M914.14,102.93c-.5.07-.3.81-.33,1.34,2.27,1.97,2.63-3.07.33-1.34Z"/>
          <path class="cls-3" d="M673.15,114.95c-7.3,1.94,4.31,10.15,3.67,2.34-.17-2.01-1.85-2.82-3.67-2.34Z"/>
          <path class="cls-3" d="M687.17,114.95c-6.89,2.47,4.64,9.99,4,2.34-.16-1.81-1.17-3.35-4-2.34Z"/>
          <path class="cls-3" d="M700.85,114.95c-7.07,4.67,6.96,8.74,4.34,1.33-.33-.93-1.92-2.34-4.34-1.33Z"/>
          <path class="cls-3" d="M713.87,119.62c.83,1.17,3.85,1.4,5.01.33.82-.85.87-3.11.33-4.34-2.48-2.66-7.49.03-5.34,4.01Z"/>
          <path class="cls-3" d="M727.88,119.62c.83,1.17,3.85,1.4,5.01.33.82-.85.87-3.11.33-4.34-2.48-2.66-7.49.03-5.34,4.01Z"/>
          <path class="cls-3" d="M741.9,119.62c.83,1.17,3.85,1.4,5.01.33.82-.85.87-3.11.34-4.34-2.49-2.66-7.5.03-5.34,4.01Z"/>
          <path class="cls-3" d="M757.59,114.95c-7.07,4.67,6.97,8.74,4.35,1.33-.34-.93-1.91-2.34-4.35-1.33Z"/>
          <path class="cls-3" d="M771.94,114.95c-6.89,2.47,4.64,9.99,4.01,2.34-.15-1.81-1.17-3.35-4.01-2.34Z"/>
          <path class="cls-3" d="M786.63,114.95c-7.29,1.94,4.31,10.15,3.67,2.34-.16-2.01-1.85-2.82-3.67-2.34Z"/>
          <path class="cls-3" d="M646.44,114.95c-.48-.13-1.17-.01-2,.34-1.41.59-2.43.9-1.67,3.34,1.74,5.57,8.51-2.38,3.67-3.67Z"/>
          <path class="cls-3" d="M661.13,114.95c-.8.21-2.42-.42-2.67.34-1.28.39-1.52,1.82-1.34,3.67,2.54,4,8.01-1.47,4.01-4.01Z"/>
          <path class="cls-3" d="M802.65,114.95c-.8.21-2.42-.42-2.68.34-1.26.39-1.51,1.82-1.33,3.67,2.54,4,8.01-1.47,4.01-4.01Z"/>
          <path class="cls-3" d="M816.67,114.95c-.48-.13-1.17-.01-2.01.34-1.4.59-2.42.9-1.67,3.34,1.74,5.57,8.52-2.38,3.67-3.67Z"/>
          <path class="cls-3" d="M616.74,115.62c-5.45,1.95,3.68,7.59,3,1.67-.19-1.71-1.51-2.2-3-1.67Z"/>
          <path class="cls-3" d="M630.09,115.62c-4.53,3.47,5.25,7.23,3.67.67-.48-.76-2.6-1.6-3.67-.67Z"/>
          <path class="cls-3" d="M828.35,115.62c-4.52,3.47,5.26,7.23,3.67.67-.48-.76-2.6-1.6-3.67-.67Z"/>
          <path class="cls-3" d="M843.04,115.62c-5.44,1.95,3.68,7.59,3,1.67-.19-1.71-1.51-2.2-3-1.67Z"/>
          <path class="cls-3" d="M602.38,115.95c-4.69,1.97,3.39,5.98,2.67,1.33-.33-2.14-2.02-1.61-2.67-1.33Z"/>
          <path class="cls-3" d="M857.39,115.95c-4.68,1.97,3.39,5.98,2.67,1.33-.32-2.14-2.01-1.61-2.67-1.33Z"/>
          <path class="cls-3" d="M587.69,118.95c1.93,1.15,3.82-.74,2.67-2.67-1.92-1.15-3.82.75-2.67,2.67Z"/>
          <path class="cls-3" d="M870.75,118.95c1.92,1.15,3.82-.74,2.67-2.67-1.93-1.15-3.82.75-2.67,2.67Z"/>
          <path class="cls-3" d="M573.34,117.95c3.68,3.47,2.02-4.83,0,0h0Z"/>
          <path class="cls-3" d="M885.09,117.95c3.68,3.47,2.02-4.83,0,0h0Z"/>
          <path class="cls-3" d="M701.85,129.3c-7.15,1.39,3.7,8.94,3,2-.13-1.29-.99-2.39-3-2Z"/>
          <path class="cls-3" d="M715.87,129.3c-6.5,1.97,4.01,8.65,3.34,2-.15-1.44-1.15-2.66-3.34-2Z"/>
          <path class="cls-3" d="M729.89,129.3c-2.1.63-2.58,3.15-1.33,4.34,3.92,3.74,6.87-6.02,1.33-4.34Z"/>
          <path class="cls-3" d="M743.91,129.3c-6.49,1.97,4.01,8.65,3.34,2-.15-1.44-1.15-2.66-3.34-2Z"/>
          <path class="cls-3" d="M758.59,129.3c-7.15,1.39,3.7,8.94,3.01,2-.13-1.29-1-2.39-3.01-2Z"/>
          <path class="cls-3" d="M659.12,129.63c-5.44,1.96,3.68,7.59,3,1.67-.19-1.71-1.51-2.2-3-1.67Z"/>
          <path class="cls-3" d="M672.81,129.63c-4.86,2.4,4.05,7.42,3.33,1.67-.2-1.68-1.62-2.51-3.33-1.67Z"/>
          <path class="cls-3" d="M686.16,133.3c2.2,1.95,5.69-.42,4.01-3.33-2.2-1.95-5.69.41-4.01,3.33Z"/>
          <path class="cls-3" d="M770.94,133.3c2.2,1.95,5.69-.42,4.01-3.33-2.2-1.95-5.69.41-4.01,3.33Z"/>
          <path class="cls-3" d="M785.3,133.3c2.2,1.95,5.69-.42,4.01-3.33-2.2-1.95-5.69.41-4.01,3.33Z"/>
          <path class="cls-3" d="M800.65,129.63c-5.45,1.96,3.68,7.59,3,1.67-.19-1.71-1.51-2.2-3-1.67Z"/>
          <path class="cls-3" d="M629.42,131.97c.47.64,1.03,1.2,1.66,1.67,1.36-.2,2.14-.97,2.34-2.34-.8-2.11-3.83-1.93-4,.67Z"/>
          <path class="cls-3" d="M644.44,129.97c-3.94,3.49,4.21,5.44,3,1-.23-.85-1.46-1.97-3-1Z"/>
          <path class="cls-3" d="M814.66,129.97c-3.93,3.49,4.22,5.44,3.01,1-.23-.85-1.47-1.97-3.01-1Z"/>
          <path class="cls-3" d="M827.69,131.97c.47.64,1.02,1.2,1.67,1.67,1.36-.2,2.14-.97,2.33-2.34-.8-2.11-3.83-1.93-4,.67Z"/>
          <path class="cls-3" d="M615.74,131.97c.66,1.56,2.66,1.56,3.33,0,0-2.45-3.34-2.45-3.33,0Z"/>
          <path class="cls-3" d="M842.04,131.97c.67,1.56,2.67,1.56,3.34,0,0-2.45-3.34-2.45-3.34,0Z"/>
          <path class="cls-3" d="M601.71,131.97c3.68,3.47,2.02-4.83,0,0h0Z"/>
          <path class="cls-3" d="M856.73,131.97c3.68,3.47,2.02-4.83,0,0h0Z"/>
          <path class="cls-3" d="M714.53,146.32c.48.64,1.03,1.2,1.67,1.67,1.36-.19,2.14-.98,2.34-2.34-.81-2.11-3.83-1.93-4.01.67Z"/>
          <path class="cls-3" d="M729.89,144.32c-4.69,1.97,3.39,5.99,2.67,1.33-.33-2.14-2.02-1.6-2.67-1.33Z"/>
          <path class="cls-3" d="M742.57,146.32c.48.64,1.03,1.2,1.67,1.67,1.36-.19,2.14-.98,2.34-2.34-.81-2.11-3.83-1.93-4.01.67Z"/>
          <path class="cls-3" d="M672.14,146.32c.67,1.56,2.67,1.56,3.34,0,0-2.45-3.34-2.45-3.34,0Z"/>
          <path class="cls-3" d="M687.17,147.66c2.13.36,3.02-.54,2.67-2.67-1.76-2.21-4.88.91-2.67,2.67Z"/>
          <path class="cls-3" d="M701.19,147.66c2.13.36,3.02-.54,2.67-2.67-1.76-2.21-4.88.91-2.67,2.67Z"/>
          <path class="cls-3" d="M757.92,147.66c2.13.36,3.02-.54,2.68-2.67-1.76-2.21-4.89.91-2.68,2.67Z"/>
          <path class="cls-3" d="M771.94,147.66c2.13.36,3.02-.54,2.68-2.67-1.76-2.21-4.88.91-2.68,2.67Z"/>
          <path class="cls-3" d="M785.63,146.32c.67,1.56,2.67,1.56,3.34,0,0-2.45-3.34-2.45-3.34,0Z"/>
          <path class="cls-3" d="M644.11,146.32c3.68,3.47,2.02-4.83,0,0h0Z"/>
          <path class="cls-3" d="M658.46,146.66c.37.07.52.37.66.67,1.36.14,2.11-.34,2.01-1.67-.36-1.61-3.3-1.19-2.67,1Z"/>
          <path class="cls-3" d="M799.98,146.66c.38.07.53.37.68.67,1.36.14,2.1-.34,2-1.67-.35-1.61-3.3-1.19-2.68,1Z"/>
          <path class="cls-3" d="M814.33,146.32c3.68,3.47,2.02-4.83,0,0h0Z"/>
          <path class="cls-3" d="M630.42,145.32c0,1.01,1.18.83,2.01,1,.45-1.5-1.35-1.62-2.01-1Z"/>
          <path class="cls-3" d="M828.69,146.32c.74-.25,1.81-.19,2-1-.66-.62-2.46-.5-2,1Z"/>
          <path class="cls-3" d="M715.54,159.34v1h2.01c.45-1.5-1.35-1.62-2.01-1Z"/>
          <path class="cls-3" d="M729.55,160.68h2.01c.76-2.24-2.78-2.24-2.01,0Z"/>
          <path class="cls-3" d="M743.57,159.34v1h2.01c.45-1.5-1.35-1.62-2.01-1Z"/>
        </g>
      </g>
      <g>
        <path class="cls-12" d="M23.22,819.32c-3.07-2.93-3.01-6.62-2.39-10.52,3.15-19.8,14.15-46.07,19.9-66.16,21.13-73.95,35.26-149.38,54.27-223.79,13.46-52.72,30.18-105.95,45.21-158.37,14.24-49.66,26.91-100.85,44.08-149.57,20.45-58.05,64.28-133.37,120.27-162.75,18.12-9.51,31.18-10.3,51.46-11.44,51.09-2.85,106.31-6,157.25-3.35,29.89,1.55,40.45,1.96,65.18,19.22,44.86,31.29,71.63,72.42,63.32,129.23-12.17,83.21-100.38,146.53-162.97,193.7-21.98,16.57-61,38.95-73.16,63.38-2.55,5.12-6.4,15.6,3.29,14.89,4.06-.29,36.93-29.39,42.67-34.31,41.22-35.31,67.61-66.51,125.36-72.42,50.44-5.16,109.56-3.11,160.49-1.63,30.98.9,46.19-4.64,68.73,19.82,85.84,93.16,56.97,241.43-46.01,308.22-75.53,48.99-189.17,72.85-278.35,75.83-41.3,1.38-83.91-1.86-124.88,4.21-24.73,3.66-42.73,13.35-53.62,36.58-4.13,8.82-7.59,27.12-13.08,33.27-1.17,1.31-2.49,2.58-4.12,3.33-11.16.47-22.42.63-33.59.4-23.26-.47-53.41-.41-76.09-3.35-7.88-1.02-9.52-.62-8.61-9.43,1.6-15.38,12.64-40.47,20.45-54.02,46.57-80.71,127.19-59.53,205.74-61.55,88.27-2.26,187.91-14.31,261.7-66.82,46.63-33.18,98.06-113.19,69.59-170.93-24.7-50.11-92.44-41.7-135.53-24.12-37.08,15.12-59.23,33.41-87.75,60.38-13.68,12.93-20.05,26.72-40.94,26.07-24.66-.76-49.76-3.81-74.45-4.99-29.87-1.42-60.36-.76-90.22-3.29-11.01-.93-14.08-3.3-15.91-13.88-18.34-106.3,74.92-145.28,144.83-195.64,56.26-40.52,135.92-124.48,100.01-199.85-15.51-32.56-40.88-46.03-76.72-44.17-82.37,4.29-121.75,87.6-142.47,156.27-52.72,188.17-98,378.6-151.9,566.42-2.3,8.02-7.39,30.17-11.18,35.99-3.69,5.67-17.36,2.08-23.72,1.86-27.18-.93-54.71-1.25-81.99-.83-4.97.08-9.48,2.58-14.17-1.9Z"/>
        <g class="cls-13">
          <g class="cls-11">
            <g>
              <path class="cls-7" d="M420.56,66.37s77.58-35.66,148.73-30.58c71.15,5.08,132.84,111.25,132.84,111.25l-285.88,21.02,4.31-101.69Z"/>
              <path class="cls-6" d="M405.24,440.72s-22.08,23.82,64.96,81.83l11.93,6.99,85.03-69.44-82.07-79.99-79.86,60.61Z"/>
              <path class="cls-5" d="M623.73,426.58s139.71-144.99,333.57-40.65l-84.2,68.9-187.99,24.03-61.38-52.28Z"/>
            </g>
          </g>
        </g>
      </g>
    </g>
  </g>
</svg>